<mxfile host="app.diagrams.net" agent="Mozilla/5.0 (Windows NT 10.0; Win64; x64; rv:139.0) Gecko/20100101 Firefox/139.0" version="27.1.1" pages="2">
  <diagram name="Page-1" id="9DTlV9KNndLaikUZDopx">
    <mxGraphModel dx="1513" dy="1081" grid="0" gridSize="10" guides="1" tooltips="1" connect="1" arrows="1" fold="1" page="1" pageScale="1" pageWidth="850" pageHeight="1100" math="0" shadow="0">
      <root>
        <mxCell id="0" />
        <mxCell id="1" parent="0" />
        <mxCell id="vLq7U2Vf2mniCk7zH5XL-1" value="&lt;div&gt;Patients&lt;/div&gt;" style="shape=table;startSize=30;container=1;collapsible=1;childLayout=tableLayout;fixedRows=1;rowLines=0;fontStyle=0;align=center;resizeLast=1;html=1;fillColor=#FFFFFF;" vertex="1" parent="1">
          <mxGeometry x="-188.99999999999997" y="118" width="180" height="360" as="geometry" />
        </mxCell>
        <mxCell id="vLq7U2Vf2mniCk7zH5XL-2" value="" style="shape=tableRow;horizontal=0;startSize=0;swimlaneHead=0;swimlaneBody=0;fillColor=none;collapsible=0;dropTarget=0;points=[[0,0.5],[1,0.5]];portConstraint=eastwest;top=0;left=0;right=0;bottom=1;fontStyle=0" vertex="1" parent="vLq7U2Vf2mniCk7zH5XL-1">
          <mxGeometry y="30" width="180" height="30" as="geometry" />
        </mxCell>
        <mxCell id="vLq7U2Vf2mniCk7zH5XL-3" value="PK" style="shape=partialRectangle;connectable=0;fillColor=none;top=0;left=0;bottom=0;right=0;fontStyle=0;overflow=hidden;whiteSpace=wrap;html=1;" vertex="1" parent="vLq7U2Vf2mniCk7zH5XL-2">
          <mxGeometry width="30" height="30" as="geometry">
            <mxRectangle width="30" height="30" as="alternateBounds" />
          </mxGeometry>
        </mxCell>
        <mxCell id="vLq7U2Vf2mniCk7zH5XL-4" value="&lt;div&gt;PatiententID&lt;/div&gt;" style="shape=partialRectangle;connectable=0;fillColor=none;top=0;left=0;bottom=0;right=0;align=left;spacingLeft=6;fontStyle=0;overflow=hidden;whiteSpace=wrap;html=1;" vertex="1" parent="vLq7U2Vf2mniCk7zH5XL-2">
          <mxGeometry x="30" width="150" height="30" as="geometry">
            <mxRectangle width="150" height="30" as="alternateBounds" />
          </mxGeometry>
        </mxCell>
        <mxCell id="vLq7U2Vf2mniCk7zH5XL-5" value="" style="shape=tableRow;horizontal=0;startSize=0;swimlaneHead=0;swimlaneBody=0;fillColor=none;collapsible=0;dropTarget=0;points=[[0,0.5],[1,0.5]];portConstraint=eastwest;top=0;left=0;right=0;bottom=0;fontStyle=0" vertex="1" parent="vLq7U2Vf2mniCk7zH5XL-1">
          <mxGeometry y="60" width="180" height="30" as="geometry" />
        </mxCell>
        <mxCell id="vLq7U2Vf2mniCk7zH5XL-6" value="" style="shape=partialRectangle;connectable=0;fillColor=none;top=0;left=0;bottom=0;right=0;editable=1;overflow=hidden;whiteSpace=wrap;html=1;fontStyle=0" vertex="1" parent="vLq7U2Vf2mniCk7zH5XL-5">
          <mxGeometry width="30" height="30" as="geometry">
            <mxRectangle width="30" height="30" as="alternateBounds" />
          </mxGeometry>
        </mxCell>
        <mxCell id="vLq7U2Vf2mniCk7zH5XL-7" value="FirstName" style="shape=partialRectangle;connectable=0;fillColor=none;top=0;left=0;bottom=0;right=0;align=left;spacingLeft=6;overflow=hidden;whiteSpace=wrap;html=1;fontStyle=0" vertex="1" parent="vLq7U2Vf2mniCk7zH5XL-5">
          <mxGeometry x="30" width="150" height="30" as="geometry">
            <mxRectangle width="150" height="30" as="alternateBounds" />
          </mxGeometry>
        </mxCell>
        <mxCell id="vLq7U2Vf2mniCk7zH5XL-8" value="" style="shape=tableRow;horizontal=0;startSize=0;swimlaneHead=0;swimlaneBody=0;fillColor=none;collapsible=0;dropTarget=0;points=[[0,0.5],[1,0.5]];portConstraint=eastwest;top=0;left=0;right=0;bottom=0;fontStyle=0" vertex="1" parent="vLq7U2Vf2mniCk7zH5XL-1">
          <mxGeometry y="90" width="180" height="30" as="geometry" />
        </mxCell>
        <mxCell id="vLq7U2Vf2mniCk7zH5XL-9" value="" style="shape=partialRectangle;connectable=0;fillColor=none;top=0;left=0;bottom=0;right=0;editable=1;overflow=hidden;whiteSpace=wrap;html=1;fontStyle=0" vertex="1" parent="vLq7U2Vf2mniCk7zH5XL-8">
          <mxGeometry width="30" height="30" as="geometry">
            <mxRectangle width="30" height="30" as="alternateBounds" />
          </mxGeometry>
        </mxCell>
        <mxCell id="vLq7U2Vf2mniCk7zH5XL-10" value="MiddleName" style="shape=partialRectangle;connectable=0;fillColor=none;top=0;left=0;bottom=0;right=0;align=left;spacingLeft=6;overflow=hidden;whiteSpace=wrap;html=1;fontStyle=0" vertex="1" parent="vLq7U2Vf2mniCk7zH5XL-8">
          <mxGeometry x="30" width="150" height="30" as="geometry">
            <mxRectangle width="150" height="30" as="alternateBounds" />
          </mxGeometry>
        </mxCell>
        <mxCell id="vLq7U2Vf2mniCk7zH5XL-11" value="" style="shape=tableRow;horizontal=0;startSize=0;swimlaneHead=0;swimlaneBody=0;fillColor=none;collapsible=0;dropTarget=0;points=[[0,0.5],[1,0.5]];portConstraint=eastwest;top=0;left=0;right=0;bottom=0;fontStyle=0" vertex="1" parent="vLq7U2Vf2mniCk7zH5XL-1">
          <mxGeometry y="120" width="180" height="30" as="geometry" />
        </mxCell>
        <mxCell id="vLq7U2Vf2mniCk7zH5XL-12" value="" style="shape=partialRectangle;connectable=0;fillColor=none;top=0;left=0;bottom=0;right=0;editable=1;overflow=hidden;whiteSpace=wrap;html=1;fontStyle=0" vertex="1" parent="vLq7U2Vf2mniCk7zH5XL-11">
          <mxGeometry width="30" height="30" as="geometry">
            <mxRectangle width="30" height="30" as="alternateBounds" />
          </mxGeometry>
        </mxCell>
        <mxCell id="vLq7U2Vf2mniCk7zH5XL-13" value="LastName" style="shape=partialRectangle;connectable=0;fillColor=none;top=0;left=0;bottom=0;right=0;align=left;spacingLeft=6;overflow=hidden;whiteSpace=wrap;html=1;fontStyle=0" vertex="1" parent="vLq7U2Vf2mniCk7zH5XL-11">
          <mxGeometry x="30" width="150" height="30" as="geometry">
            <mxRectangle width="150" height="30" as="alternateBounds" />
          </mxGeometry>
        </mxCell>
        <mxCell id="vLq7U2Vf2mniCk7zH5XL-14" style="shape=tableRow;horizontal=0;startSize=0;swimlaneHead=0;swimlaneBody=0;fillColor=none;collapsible=0;dropTarget=0;points=[[0,0.5],[1,0.5]];portConstraint=eastwest;top=0;left=0;right=0;bottom=0;fontStyle=0" vertex="1" parent="vLq7U2Vf2mniCk7zH5XL-1">
          <mxGeometry y="150" width="180" height="30" as="geometry" />
        </mxCell>
        <mxCell id="vLq7U2Vf2mniCk7zH5XL-15" style="shape=partialRectangle;connectable=0;fillColor=none;top=0;left=0;bottom=0;right=0;editable=1;overflow=hidden;whiteSpace=wrap;html=1;fontStyle=0" vertex="1" parent="vLq7U2Vf2mniCk7zH5XL-14">
          <mxGeometry width="30" height="30" as="geometry">
            <mxRectangle width="30" height="30" as="alternateBounds" />
          </mxGeometry>
        </mxCell>
        <mxCell id="vLq7U2Vf2mniCk7zH5XL-16" value="DoB" style="shape=partialRectangle;connectable=0;fillColor=none;top=0;left=0;bottom=0;right=0;align=left;spacingLeft=6;overflow=hidden;whiteSpace=wrap;html=1;fontStyle=0" vertex="1" parent="vLq7U2Vf2mniCk7zH5XL-14">
          <mxGeometry x="30" width="150" height="30" as="geometry">
            <mxRectangle width="150" height="30" as="alternateBounds" />
          </mxGeometry>
        </mxCell>
        <mxCell id="vLq7U2Vf2mniCk7zH5XL-17" style="shape=tableRow;horizontal=0;startSize=0;swimlaneHead=0;swimlaneBody=0;fillColor=none;collapsible=0;dropTarget=0;points=[[0,0.5],[1,0.5]];portConstraint=eastwest;top=0;left=0;right=0;bottom=0;fontStyle=0" vertex="1" parent="vLq7U2Vf2mniCk7zH5XL-1">
          <mxGeometry y="180" width="180" height="30" as="geometry" />
        </mxCell>
        <mxCell id="vLq7U2Vf2mniCk7zH5XL-18" style="shape=partialRectangle;connectable=0;fillColor=none;top=0;left=0;bottom=0;right=0;editable=1;overflow=hidden;whiteSpace=wrap;html=1;fontStyle=0" vertex="1" parent="vLq7U2Vf2mniCk7zH5XL-17">
          <mxGeometry width="30" height="30" as="geometry">
            <mxRectangle width="30" height="30" as="alternateBounds" />
          </mxGeometry>
        </mxCell>
        <mxCell id="vLq7U2Vf2mniCk7zH5XL-19" value="Sex" style="shape=partialRectangle;connectable=0;fillColor=none;top=0;left=0;bottom=0;right=0;align=left;spacingLeft=6;overflow=hidden;whiteSpace=wrap;html=1;fontStyle=0" vertex="1" parent="vLq7U2Vf2mniCk7zH5XL-17">
          <mxGeometry x="30" width="150" height="30" as="geometry">
            <mxRectangle width="150" height="30" as="alternateBounds" />
          </mxGeometry>
        </mxCell>
        <mxCell id="vLq7U2Vf2mniCk7zH5XL-20" style="shape=tableRow;horizontal=0;startSize=0;swimlaneHead=0;swimlaneBody=0;fillColor=none;collapsible=0;dropTarget=0;points=[[0,0.5],[1,0.5]];portConstraint=eastwest;top=0;left=0;right=0;bottom=0;fontStyle=0" vertex="1" parent="vLq7U2Vf2mniCk7zH5XL-1">
          <mxGeometry y="210" width="180" height="30" as="geometry" />
        </mxCell>
        <mxCell id="vLq7U2Vf2mniCk7zH5XL-21" style="shape=partialRectangle;connectable=0;fillColor=none;top=0;left=0;bottom=0;right=0;editable=1;overflow=hidden;whiteSpace=wrap;html=1;fontStyle=0" vertex="1" parent="vLq7U2Vf2mniCk7zH5XL-20">
          <mxGeometry width="30" height="30" as="geometry">
            <mxRectangle width="30" height="30" as="alternateBounds" />
          </mxGeometry>
        </mxCell>
        <mxCell id="vLq7U2Vf2mniCk7zH5XL-22" value="&lt;div&gt;ContactNumber&lt;/div&gt;" style="shape=partialRectangle;connectable=0;fillColor=none;top=0;left=0;bottom=0;right=0;align=left;spacingLeft=6;overflow=hidden;whiteSpace=wrap;html=1;fontStyle=0" vertex="1" parent="vLq7U2Vf2mniCk7zH5XL-20">
          <mxGeometry x="30" width="150" height="30" as="geometry">
            <mxRectangle width="150" height="30" as="alternateBounds" />
          </mxGeometry>
        </mxCell>
        <mxCell id="vLq7U2Vf2mniCk7zH5XL-23" style="shape=tableRow;horizontal=0;startSize=0;swimlaneHead=0;swimlaneBody=0;fillColor=none;collapsible=0;dropTarget=0;points=[[0,0.5],[1,0.5]];portConstraint=eastwest;top=0;left=0;right=0;bottom=0;fontStyle=0" vertex="1" parent="vLq7U2Vf2mniCk7zH5XL-1">
          <mxGeometry y="240" width="180" height="30" as="geometry" />
        </mxCell>
        <mxCell id="vLq7U2Vf2mniCk7zH5XL-24" style="shape=partialRectangle;connectable=0;fillColor=none;top=0;left=0;bottom=0;right=0;editable=1;overflow=hidden;whiteSpace=wrap;html=1;fontStyle=0" vertex="1" parent="vLq7U2Vf2mniCk7zH5XL-23">
          <mxGeometry width="30" height="30" as="geometry">
            <mxRectangle width="30" height="30" as="alternateBounds" />
          </mxGeometry>
        </mxCell>
        <mxCell id="vLq7U2Vf2mniCk7zH5XL-25" value="&lt;div&gt;AltContactNumber&lt;/div&gt;" style="shape=partialRectangle;connectable=0;fillColor=none;top=0;left=0;bottom=0;right=0;align=left;spacingLeft=6;overflow=hidden;whiteSpace=wrap;html=1;fontStyle=0" vertex="1" parent="vLq7U2Vf2mniCk7zH5XL-23">
          <mxGeometry x="30" width="150" height="30" as="geometry">
            <mxRectangle width="150" height="30" as="alternateBounds" />
          </mxGeometry>
        </mxCell>
        <mxCell id="vLq7U2Vf2mniCk7zH5XL-26" style="shape=tableRow;horizontal=0;startSize=0;swimlaneHead=0;swimlaneBody=0;fillColor=none;collapsible=0;dropTarget=0;points=[[0,0.5],[1,0.5]];portConstraint=eastwest;top=0;left=0;right=0;bottom=0;fontStyle=0" vertex="1" parent="vLq7U2Vf2mniCk7zH5XL-1">
          <mxGeometry y="270" width="180" height="30" as="geometry" />
        </mxCell>
        <mxCell id="vLq7U2Vf2mniCk7zH5XL-27" style="shape=partialRectangle;connectable=0;fillColor=none;top=0;left=0;bottom=0;right=0;editable=1;overflow=hidden;whiteSpace=wrap;html=1;fontStyle=0" vertex="1" parent="vLq7U2Vf2mniCk7zH5XL-26">
          <mxGeometry width="30" height="30" as="geometry">
            <mxRectangle width="30" height="30" as="alternateBounds" />
          </mxGeometry>
        </mxCell>
        <mxCell id="vLq7U2Vf2mniCk7zH5XL-28" value="&lt;div&gt;EmailAddress&lt;/div&gt;" style="shape=partialRectangle;connectable=0;fillColor=none;top=0;left=0;bottom=0;right=0;align=left;spacingLeft=6;overflow=hidden;whiteSpace=wrap;html=1;fontStyle=0" vertex="1" parent="vLq7U2Vf2mniCk7zH5XL-26">
          <mxGeometry x="30" width="150" height="30" as="geometry">
            <mxRectangle width="150" height="30" as="alternateBounds" />
          </mxGeometry>
        </mxCell>
        <mxCell id="vLq7U2Vf2mniCk7zH5XL-29" style="shape=tableRow;horizontal=0;startSize=0;swimlaneHead=0;swimlaneBody=0;fillColor=none;collapsible=0;dropTarget=0;points=[[0,0.5],[1,0.5]];portConstraint=eastwest;top=0;left=0;right=0;bottom=0;fontStyle=0" vertex="1" parent="vLq7U2Vf2mniCk7zH5XL-1">
          <mxGeometry y="300" width="180" height="30" as="geometry" />
        </mxCell>
        <mxCell id="vLq7U2Vf2mniCk7zH5XL-30" style="shape=partialRectangle;connectable=0;fillColor=none;top=0;left=0;bottom=0;right=0;editable=1;overflow=hidden;whiteSpace=wrap;html=1;fontStyle=0" vertex="1" parent="vLq7U2Vf2mniCk7zH5XL-29">
          <mxGeometry width="30" height="30" as="geometry">
            <mxRectangle width="30" height="30" as="alternateBounds" />
          </mxGeometry>
        </mxCell>
        <mxCell id="vLq7U2Vf2mniCk7zH5XL-31" value="Address" style="shape=partialRectangle;connectable=0;fillColor=none;top=0;left=0;bottom=0;right=0;align=left;spacingLeft=6;overflow=hidden;whiteSpace=wrap;html=1;fontStyle=0" vertex="1" parent="vLq7U2Vf2mniCk7zH5XL-29">
          <mxGeometry x="30" width="150" height="30" as="geometry">
            <mxRectangle width="150" height="30" as="alternateBounds" />
          </mxGeometry>
        </mxCell>
        <mxCell id="vLq7U2Vf2mniCk7zH5XL-32" style="shape=tableRow;horizontal=0;startSize=0;swimlaneHead=0;swimlaneBody=0;fillColor=none;collapsible=0;dropTarget=0;points=[[0,0.5],[1,0.5]];portConstraint=eastwest;top=0;left=0;right=0;bottom=0;fontStyle=0" vertex="1" parent="vLq7U2Vf2mniCk7zH5XL-1">
          <mxGeometry y="330" width="180" height="30" as="geometry" />
        </mxCell>
        <mxCell id="vLq7U2Vf2mniCk7zH5XL-33" style="shape=partialRectangle;connectable=0;fillColor=none;top=0;left=0;bottom=0;right=0;editable=1;overflow=hidden;whiteSpace=wrap;html=1;fontStyle=0" vertex="1" parent="vLq7U2Vf2mniCk7zH5XL-32">
          <mxGeometry width="30" height="30" as="geometry">
            <mxRectangle width="30" height="30" as="alternateBounds" />
          </mxGeometry>
        </mxCell>
        <mxCell id="vLq7U2Vf2mniCk7zH5XL-34" value="Status" style="shape=partialRectangle;connectable=0;fillColor=none;top=0;left=0;bottom=0;right=0;align=left;spacingLeft=6;overflow=hidden;whiteSpace=wrap;html=1;fontStyle=0" vertex="1" parent="vLq7U2Vf2mniCk7zH5XL-32">
          <mxGeometry x="30" width="150" height="30" as="geometry">
            <mxRectangle width="150" height="30" as="alternateBounds" />
          </mxGeometry>
        </mxCell>
        <mxCell id="vLq7U2Vf2mniCk7zH5XL-35" value="&lt;div&gt;Doctors&lt;/div&gt;" style="shape=table;startSize=30;container=1;collapsible=1;childLayout=tableLayout;fixedRows=1;rowLines=0;fontStyle=0;align=center;resizeLast=1;html=1;fillColor=#FFFFFF;" vertex="1" parent="1">
          <mxGeometry x="-220" y="537" width="180" height="270" as="geometry" />
        </mxCell>
        <mxCell id="vLq7U2Vf2mniCk7zH5XL-36" value="" style="shape=tableRow;horizontal=0;startSize=0;swimlaneHead=0;swimlaneBody=0;fillColor=none;collapsible=0;dropTarget=0;points=[[0,0.5],[1,0.5]];portConstraint=eastwest;top=0;left=0;right=0;bottom=1;fontStyle=0" vertex="1" parent="vLq7U2Vf2mniCk7zH5XL-35">
          <mxGeometry y="30" width="180" height="30" as="geometry" />
        </mxCell>
        <mxCell id="vLq7U2Vf2mniCk7zH5XL-37" value="PK" style="shape=partialRectangle;connectable=0;fillColor=none;top=0;left=0;bottom=0;right=0;fontStyle=0;overflow=hidden;whiteSpace=wrap;html=1;" vertex="1" parent="vLq7U2Vf2mniCk7zH5XL-36">
          <mxGeometry width="31.458333333333627" height="30" as="geometry">
            <mxRectangle width="31.458333333333627" height="30" as="alternateBounds" />
          </mxGeometry>
        </mxCell>
        <mxCell id="vLq7U2Vf2mniCk7zH5XL-38" value="&lt;div&gt;DoctorID&lt;/div&gt;" style="shape=partialRectangle;connectable=0;fillColor=none;top=0;left=0;bottom=0;right=0;align=left;spacingLeft=6;fontStyle=0;overflow=hidden;whiteSpace=wrap;html=1;" vertex="1" parent="vLq7U2Vf2mniCk7zH5XL-36">
          <mxGeometry x="31.458333333333627" width="148.54166666666637" height="30" as="geometry">
            <mxRectangle width="148.54166666666637" height="30" as="alternateBounds" />
          </mxGeometry>
        </mxCell>
        <mxCell id="vLq7U2Vf2mniCk7zH5XL-39" style="shape=tableRow;horizontal=0;startSize=0;swimlaneHead=0;swimlaneBody=0;fillColor=none;collapsible=0;dropTarget=0;points=[[0,0.5],[1,0.5]];portConstraint=eastwest;top=0;left=0;right=0;bottom=1;fontStyle=0" vertex="1" parent="vLq7U2Vf2mniCk7zH5XL-35">
          <mxGeometry y="60" width="180" height="30" as="geometry" />
        </mxCell>
        <mxCell id="vLq7U2Vf2mniCk7zH5XL-40" value="FK" style="shape=partialRectangle;connectable=0;fillColor=none;top=0;left=0;bottom=0;right=0;fontStyle=0;overflow=hidden;whiteSpace=wrap;html=1;" vertex="1" parent="vLq7U2Vf2mniCk7zH5XL-39">
          <mxGeometry width="31.458333333333627" height="30" as="geometry">
            <mxRectangle width="31.458333333333627" height="30" as="alternateBounds" />
          </mxGeometry>
        </mxCell>
        <mxCell id="vLq7U2Vf2mniCk7zH5XL-41" value="UserID" style="shape=partialRectangle;connectable=0;fillColor=none;top=0;left=0;bottom=0;right=0;align=left;spacingLeft=6;fontStyle=0;overflow=hidden;whiteSpace=wrap;html=1;" vertex="1" parent="vLq7U2Vf2mniCk7zH5XL-39">
          <mxGeometry x="31.458333333333627" width="148.54166666666637" height="30" as="geometry">
            <mxRectangle width="148.54166666666637" height="30" as="alternateBounds" />
          </mxGeometry>
        </mxCell>
        <mxCell id="vLq7U2Vf2mniCk7zH5XL-42" value="" style="shape=tableRow;horizontal=0;startSize=0;swimlaneHead=0;swimlaneBody=0;fillColor=none;collapsible=0;dropTarget=0;points=[[0,0.5],[1,0.5]];portConstraint=eastwest;top=0;left=0;right=0;bottom=0;fontStyle=0" vertex="1" parent="vLq7U2Vf2mniCk7zH5XL-35">
          <mxGeometry y="90" width="180" height="30" as="geometry" />
        </mxCell>
        <mxCell id="vLq7U2Vf2mniCk7zH5XL-43" value="" style="shape=partialRectangle;connectable=0;fillColor=none;top=0;left=0;bottom=0;right=0;editable=1;overflow=hidden;whiteSpace=wrap;html=1;fontStyle=0" vertex="1" parent="vLq7U2Vf2mniCk7zH5XL-42">
          <mxGeometry width="31.458333333333627" height="30" as="geometry">
            <mxRectangle width="31.458333333333627" height="30" as="alternateBounds" />
          </mxGeometry>
        </mxCell>
        <mxCell id="vLq7U2Vf2mniCk7zH5XL-44" value="FirstName" style="shape=partialRectangle;connectable=0;fillColor=none;top=0;left=0;bottom=0;right=0;align=left;spacingLeft=6;overflow=hidden;whiteSpace=wrap;html=1;fontStyle=0" vertex="1" parent="vLq7U2Vf2mniCk7zH5XL-42">
          <mxGeometry x="31.458333333333627" width="148.54166666666637" height="30" as="geometry">
            <mxRectangle width="148.54166666666637" height="30" as="alternateBounds" />
          </mxGeometry>
        </mxCell>
        <mxCell id="vLq7U2Vf2mniCk7zH5XL-45" value="" style="shape=tableRow;horizontal=0;startSize=0;swimlaneHead=0;swimlaneBody=0;fillColor=none;collapsible=0;dropTarget=0;points=[[0,0.5],[1,0.5]];portConstraint=eastwest;top=0;left=0;right=0;bottom=0;fontStyle=0" vertex="1" parent="vLq7U2Vf2mniCk7zH5XL-35">
          <mxGeometry y="120" width="180" height="30" as="geometry" />
        </mxCell>
        <mxCell id="vLq7U2Vf2mniCk7zH5XL-46" value="" style="shape=partialRectangle;connectable=0;fillColor=none;top=0;left=0;bottom=0;right=0;editable=1;overflow=hidden;whiteSpace=wrap;html=1;fontStyle=0" vertex="1" parent="vLq7U2Vf2mniCk7zH5XL-45">
          <mxGeometry width="31.458333333333627" height="30" as="geometry">
            <mxRectangle width="31.458333333333627" height="30" as="alternateBounds" />
          </mxGeometry>
        </mxCell>
        <mxCell id="vLq7U2Vf2mniCk7zH5XL-47" value="MiddleName" style="shape=partialRectangle;connectable=0;fillColor=none;top=0;left=0;bottom=0;right=0;align=left;spacingLeft=6;overflow=hidden;whiteSpace=wrap;html=1;fontStyle=0" vertex="1" parent="vLq7U2Vf2mniCk7zH5XL-45">
          <mxGeometry x="31.458333333333627" width="148.54166666666637" height="30" as="geometry">
            <mxRectangle width="148.54166666666637" height="30" as="alternateBounds" />
          </mxGeometry>
        </mxCell>
        <mxCell id="vLq7U2Vf2mniCk7zH5XL-48" value="" style="shape=tableRow;horizontal=0;startSize=0;swimlaneHead=0;swimlaneBody=0;fillColor=none;collapsible=0;dropTarget=0;points=[[0,0.5],[1,0.5]];portConstraint=eastwest;top=0;left=0;right=0;bottom=0;fontStyle=0" vertex="1" parent="vLq7U2Vf2mniCk7zH5XL-35">
          <mxGeometry y="150" width="180" height="30" as="geometry" />
        </mxCell>
        <mxCell id="vLq7U2Vf2mniCk7zH5XL-49" value="" style="shape=partialRectangle;connectable=0;fillColor=none;top=0;left=0;bottom=0;right=0;editable=1;overflow=hidden;whiteSpace=wrap;html=1;fontStyle=0" vertex="1" parent="vLq7U2Vf2mniCk7zH5XL-48">
          <mxGeometry width="31.458333333333627" height="30" as="geometry">
            <mxRectangle width="31.458333333333627" height="30" as="alternateBounds" />
          </mxGeometry>
        </mxCell>
        <mxCell id="vLq7U2Vf2mniCk7zH5XL-50" value="LastName" style="shape=partialRectangle;connectable=0;fillColor=none;top=0;left=0;bottom=0;right=0;align=left;spacingLeft=6;overflow=hidden;whiteSpace=wrap;html=1;fontStyle=0" vertex="1" parent="vLq7U2Vf2mniCk7zH5XL-48">
          <mxGeometry x="31.458333333333627" width="148.54166666666637" height="30" as="geometry">
            <mxRectangle width="148.54166666666637" height="30" as="alternateBounds" />
          </mxGeometry>
        </mxCell>
        <mxCell id="vLq7U2Vf2mniCk7zH5XL-51" style="shape=tableRow;horizontal=0;startSize=0;swimlaneHead=0;swimlaneBody=0;fillColor=none;collapsible=0;dropTarget=0;points=[[0,0.5],[1,0.5]];portConstraint=eastwest;top=0;left=0;right=0;bottom=0;fontStyle=0" vertex="1" parent="vLq7U2Vf2mniCk7zH5XL-35">
          <mxGeometry y="180" width="180" height="30" as="geometry" />
        </mxCell>
        <mxCell id="vLq7U2Vf2mniCk7zH5XL-52" style="shape=partialRectangle;connectable=0;fillColor=none;top=0;left=0;bottom=0;right=0;editable=1;overflow=hidden;whiteSpace=wrap;html=1;fontStyle=0" vertex="1" parent="vLq7U2Vf2mniCk7zH5XL-51">
          <mxGeometry width="31.458333333333627" height="30" as="geometry">
            <mxRectangle width="31.458333333333627" height="30" as="alternateBounds" />
          </mxGeometry>
        </mxCell>
        <mxCell id="vLq7U2Vf2mniCk7zH5XL-53" value="LicenseNumber" style="shape=partialRectangle;connectable=0;fillColor=none;top=0;left=0;bottom=0;right=0;align=left;spacingLeft=6;overflow=hidden;whiteSpace=wrap;html=1;fontStyle=0" vertex="1" parent="vLq7U2Vf2mniCk7zH5XL-51">
          <mxGeometry x="31.458333333333627" width="148.54166666666637" height="30" as="geometry">
            <mxRectangle width="148.54166666666637" height="30" as="alternateBounds" />
          </mxGeometry>
        </mxCell>
        <mxCell id="vLq7U2Vf2mniCk7zH5XL-54" style="shape=tableRow;horizontal=0;startSize=0;swimlaneHead=0;swimlaneBody=0;fillColor=none;collapsible=0;dropTarget=0;points=[[0,0.5],[1,0.5]];portConstraint=eastwest;top=0;left=0;right=0;bottom=0;fontStyle=0" vertex="1" parent="vLq7U2Vf2mniCk7zH5XL-35">
          <mxGeometry y="210" width="180" height="30" as="geometry" />
        </mxCell>
        <mxCell id="vLq7U2Vf2mniCk7zH5XL-55" style="shape=partialRectangle;connectable=0;fillColor=none;top=0;left=0;bottom=0;right=0;editable=1;overflow=hidden;whiteSpace=wrap;html=1;fontStyle=0" vertex="1" parent="vLq7U2Vf2mniCk7zH5XL-54">
          <mxGeometry width="31.458333333333627" height="30" as="geometry">
            <mxRectangle width="31.458333333333627" height="30" as="alternateBounds" />
          </mxGeometry>
        </mxCell>
        <mxCell id="vLq7U2Vf2mniCk7zH5XL-56" value="Schedule" style="shape=partialRectangle;connectable=0;fillColor=none;top=0;left=0;bottom=0;right=0;align=left;spacingLeft=6;overflow=hidden;whiteSpace=wrap;html=1;fontStyle=0" vertex="1" parent="vLq7U2Vf2mniCk7zH5XL-54">
          <mxGeometry x="31.458333333333627" width="148.54166666666637" height="30" as="geometry">
            <mxRectangle width="148.54166666666637" height="30" as="alternateBounds" />
          </mxGeometry>
        </mxCell>
        <mxCell id="vLq7U2Vf2mniCk7zH5XL-57" style="shape=tableRow;horizontal=0;startSize=0;swimlaneHead=0;swimlaneBody=0;fillColor=none;collapsible=0;dropTarget=0;points=[[0,0.5],[1,0.5]];portConstraint=eastwest;top=0;left=0;right=0;bottom=0;fontStyle=0" vertex="1" parent="vLq7U2Vf2mniCk7zH5XL-35">
          <mxGeometry y="240" width="180" height="30" as="geometry" />
        </mxCell>
        <mxCell id="vLq7U2Vf2mniCk7zH5XL-58" style="shape=partialRectangle;connectable=0;fillColor=none;top=0;left=0;bottom=0;right=0;editable=1;overflow=hidden;whiteSpace=wrap;html=1;fontStyle=0" vertex="1" parent="vLq7U2Vf2mniCk7zH5XL-57">
          <mxGeometry width="31.458333333333627" height="30" as="geometry">
            <mxRectangle width="31.458333333333627" height="30" as="alternateBounds" />
          </mxGeometry>
        </mxCell>
        <mxCell id="vLq7U2Vf2mniCk7zH5XL-59" value="&lt;div&gt;AvailabilityStatus&lt;/div&gt;" style="shape=partialRectangle;connectable=0;fillColor=none;top=0;left=0;bottom=0;right=0;align=left;spacingLeft=6;overflow=hidden;whiteSpace=wrap;html=1;fontStyle=0" vertex="1" parent="vLq7U2Vf2mniCk7zH5XL-57">
          <mxGeometry x="31.458333333333627" width="148.54166666666637" height="30" as="geometry">
            <mxRectangle width="148.54166666666637" height="30" as="alternateBounds" />
          </mxGeometry>
        </mxCell>
        <mxCell id="vLq7U2Vf2mniCk7zH5XL-60" value="&lt;div&gt;Services&lt;/div&gt;" style="shape=table;startSize=30;container=1;collapsible=1;childLayout=tableLayout;fixedRows=1;rowLines=0;fontStyle=0;align=center;resizeLast=1;html=1;fillColor=#FFFFFF;" vertex="1" parent="1">
          <mxGeometry x="-780.66" y="422" width="180" height="178" as="geometry" />
        </mxCell>
        <mxCell id="vLq7U2Vf2mniCk7zH5XL-61" value="" style="shape=tableRow;horizontal=0;startSize=0;swimlaneHead=0;swimlaneBody=0;fillColor=none;collapsible=0;dropTarget=0;points=[[0,0.5],[1,0.5]];portConstraint=eastwest;top=0;left=0;right=0;bottom=1;fontStyle=0" vertex="1" parent="vLq7U2Vf2mniCk7zH5XL-60">
          <mxGeometry y="30" width="180" height="28" as="geometry" />
        </mxCell>
        <mxCell id="vLq7U2Vf2mniCk7zH5XL-62" value="PK" style="shape=partialRectangle;connectable=0;fillColor=none;top=0;left=0;bottom=0;right=0;fontStyle=0;overflow=hidden;whiteSpace=wrap;html=1;" vertex="1" parent="vLq7U2Vf2mniCk7zH5XL-61">
          <mxGeometry width="28.75" height="28" as="geometry">
            <mxRectangle width="28.75" height="28" as="alternateBounds" />
          </mxGeometry>
        </mxCell>
        <mxCell id="vLq7U2Vf2mniCk7zH5XL-63" value="&lt;div&gt;ServiceID&lt;/div&gt;" style="shape=partialRectangle;connectable=0;fillColor=none;top=0;left=0;bottom=0;right=0;align=left;spacingLeft=6;fontStyle=0;overflow=hidden;whiteSpace=wrap;html=1;" vertex="1" parent="vLq7U2Vf2mniCk7zH5XL-61">
          <mxGeometry x="28.75" width="151.25" height="28" as="geometry">
            <mxRectangle width="151.25" height="28" as="alternateBounds" />
          </mxGeometry>
        </mxCell>
        <mxCell id="vLq7U2Vf2mniCk7zH5XL-64" value="" style="shape=tableRow;horizontal=0;startSize=0;swimlaneHead=0;swimlaneBody=0;fillColor=none;collapsible=0;dropTarget=0;points=[[0,0.5],[1,0.5]];portConstraint=eastwest;top=0;left=0;right=0;bottom=0;fontStyle=0" vertex="1" parent="vLq7U2Vf2mniCk7zH5XL-60">
          <mxGeometry y="58" width="180" height="30" as="geometry" />
        </mxCell>
        <mxCell id="vLq7U2Vf2mniCk7zH5XL-65" value="" style="shape=partialRectangle;connectable=0;fillColor=none;top=0;left=0;bottom=0;right=0;editable=1;overflow=hidden;whiteSpace=wrap;html=1;fontStyle=0" vertex="1" parent="vLq7U2Vf2mniCk7zH5XL-64">
          <mxGeometry width="28.75" height="30" as="geometry">
            <mxRectangle width="28.75" height="30" as="alternateBounds" />
          </mxGeometry>
        </mxCell>
        <mxCell id="vLq7U2Vf2mniCk7zH5XL-66" value="ServiceName" style="shape=partialRectangle;connectable=0;fillColor=none;top=0;left=0;bottom=0;right=0;align=left;spacingLeft=6;overflow=hidden;whiteSpace=wrap;html=1;fontStyle=0" vertex="1" parent="vLq7U2Vf2mniCk7zH5XL-64">
          <mxGeometry x="28.75" width="151.25" height="30" as="geometry">
            <mxRectangle width="151.25" height="30" as="alternateBounds" />
          </mxGeometry>
        </mxCell>
        <mxCell id="vLq7U2Vf2mniCk7zH5XL-67" style="shape=tableRow;horizontal=0;startSize=0;swimlaneHead=0;swimlaneBody=0;fillColor=none;collapsible=0;dropTarget=0;points=[[0,0.5],[1,0.5]];portConstraint=eastwest;top=0;left=0;right=0;bottom=0;fontStyle=0" vertex="1" parent="vLq7U2Vf2mniCk7zH5XL-60">
          <mxGeometry y="88" width="180" height="30" as="geometry" />
        </mxCell>
        <mxCell id="vLq7U2Vf2mniCk7zH5XL-68" value="FK" style="shape=partialRectangle;connectable=0;fillColor=none;top=0;left=0;bottom=0;right=0;editable=1;overflow=hidden;whiteSpace=wrap;html=1;fontStyle=0" vertex="1" parent="vLq7U2Vf2mniCk7zH5XL-67">
          <mxGeometry width="28.75" height="30" as="geometry">
            <mxRectangle width="28.75" height="30" as="alternateBounds" />
          </mxGeometry>
        </mxCell>
        <mxCell id="vLq7U2Vf2mniCk7zH5XL-69" value="ServiceTypeID" style="shape=partialRectangle;connectable=0;fillColor=none;top=0;left=0;bottom=0;right=0;align=left;spacingLeft=6;overflow=hidden;whiteSpace=wrap;html=1;fontStyle=0" vertex="1" parent="vLq7U2Vf2mniCk7zH5XL-67">
          <mxGeometry x="28.75" width="151.25" height="30" as="geometry">
            <mxRectangle width="151.25" height="30" as="alternateBounds" />
          </mxGeometry>
        </mxCell>
        <mxCell id="vLq7U2Vf2mniCk7zH5XL-70" style="shape=tableRow;horizontal=0;startSize=0;swimlaneHead=0;swimlaneBody=0;fillColor=none;collapsible=0;dropTarget=0;points=[[0,0.5],[1,0.5]];portConstraint=eastwest;top=0;left=0;right=0;bottom=0;fontStyle=0" vertex="1" parent="vLq7U2Vf2mniCk7zH5XL-60">
          <mxGeometry y="118" width="180" height="30" as="geometry" />
        </mxCell>
        <mxCell id="vLq7U2Vf2mniCk7zH5XL-71" style="shape=partialRectangle;connectable=0;fillColor=none;top=0;left=0;bottom=0;right=0;editable=1;overflow=hidden;whiteSpace=wrap;html=1;fontStyle=0" vertex="1" parent="vLq7U2Vf2mniCk7zH5XL-70">
          <mxGeometry width="28.75" height="30" as="geometry">
            <mxRectangle width="28.75" height="30" as="alternateBounds" />
          </mxGeometry>
        </mxCell>
        <mxCell id="vLq7U2Vf2mniCk7zH5XL-72" value="ServiceDesc" style="shape=partialRectangle;connectable=0;fillColor=none;top=0;left=0;bottom=0;right=0;align=left;spacingLeft=6;overflow=hidden;whiteSpace=wrap;html=1;fontStyle=0" vertex="1" parent="vLq7U2Vf2mniCk7zH5XL-70">
          <mxGeometry x="28.75" width="151.25" height="30" as="geometry">
            <mxRectangle width="151.25" height="30" as="alternateBounds" />
          </mxGeometry>
        </mxCell>
        <mxCell id="vLq7U2Vf2mniCk7zH5XL-73" style="shape=tableRow;horizontal=0;startSize=0;swimlaneHead=0;swimlaneBody=0;fillColor=none;collapsible=0;dropTarget=0;points=[[0,0.5],[1,0.5]];portConstraint=eastwest;top=0;left=0;right=0;bottom=0;fontStyle=0" vertex="1" parent="vLq7U2Vf2mniCk7zH5XL-60">
          <mxGeometry y="148" width="180" height="30" as="geometry" />
        </mxCell>
        <mxCell id="vLq7U2Vf2mniCk7zH5XL-74" style="shape=partialRectangle;connectable=0;fillColor=none;top=0;left=0;bottom=0;right=0;editable=1;overflow=hidden;whiteSpace=wrap;html=1;fontStyle=0" vertex="1" parent="vLq7U2Vf2mniCk7zH5XL-73">
          <mxGeometry width="28.75" height="30" as="geometry">
            <mxRectangle width="28.75" height="30" as="alternateBounds" />
          </mxGeometry>
        </mxCell>
        <mxCell id="vLq7U2Vf2mniCk7zH5XL-75" value="Price" style="shape=partialRectangle;connectable=0;fillColor=none;top=0;left=0;bottom=0;right=0;align=left;spacingLeft=6;overflow=hidden;whiteSpace=wrap;html=1;fontStyle=0" vertex="1" parent="vLq7U2Vf2mniCk7zH5XL-73">
          <mxGeometry x="28.75" width="151.25" height="30" as="geometry">
            <mxRectangle width="151.25" height="30" as="alternateBounds" />
          </mxGeometry>
        </mxCell>
        <mxCell id="vLq7U2Vf2mniCk7zH5XL-76" value="&lt;div&gt;Appointments&lt;/div&gt;" style="shape=table;startSize=30;container=1;collapsible=1;childLayout=tableLayout;fixedRows=1;rowLines=0;fontStyle=0;align=center;resizeLast=1;html=1;fillColor=#FFFFFF;" vertex="1" parent="1">
          <mxGeometry x="-438" y="114" width="180" height="209.05405405405406" as="geometry" />
        </mxCell>
        <mxCell id="vLq7U2Vf2mniCk7zH5XL-77" value="" style="shape=tableRow;horizontal=0;startSize=0;swimlaneHead=0;swimlaneBody=0;fillColor=none;collapsible=0;dropTarget=0;points=[[0,0.5],[1,0.5]];portConstraint=eastwest;top=0;left=0;right=0;bottom=1;fontStyle=0" vertex="1" parent="vLq7U2Vf2mniCk7zH5XL-76">
          <mxGeometry y="30" width="180" height="28" as="geometry" />
        </mxCell>
        <mxCell id="vLq7U2Vf2mniCk7zH5XL-78" value="PK" style="shape=partialRectangle;connectable=0;fillColor=none;top=0;left=0;bottom=0;right=0;fontStyle=0;overflow=hidden;whiteSpace=wrap;html=1;" vertex="1" parent="vLq7U2Vf2mniCk7zH5XL-77">
          <mxGeometry width="30" height="28" as="geometry">
            <mxRectangle width="30" height="28" as="alternateBounds" />
          </mxGeometry>
        </mxCell>
        <mxCell id="vLq7U2Vf2mniCk7zH5XL-79" value="AppointmentID" style="shape=partialRectangle;connectable=0;fillColor=none;top=0;left=0;bottom=0;right=0;align=left;spacingLeft=6;fontStyle=0;overflow=hidden;whiteSpace=wrap;html=1;" vertex="1" parent="vLq7U2Vf2mniCk7zH5XL-77">
          <mxGeometry x="30" width="150" height="28" as="geometry">
            <mxRectangle width="150" height="28" as="alternateBounds" />
          </mxGeometry>
        </mxCell>
        <mxCell id="vLq7U2Vf2mniCk7zH5XL-80" value="" style="shape=tableRow;horizontal=0;startSize=0;swimlaneHead=0;swimlaneBody=0;fillColor=none;collapsible=0;dropTarget=0;points=[[0,0.5],[1,0.5]];portConstraint=eastwest;top=0;left=0;right=0;bottom=0;fontStyle=0" vertex="1" parent="vLq7U2Vf2mniCk7zH5XL-76">
          <mxGeometry y="58" width="180" height="31" as="geometry" />
        </mxCell>
        <mxCell id="vLq7U2Vf2mniCk7zH5XL-81" value="&lt;span&gt;FK&lt;/span&gt;" style="shape=partialRectangle;connectable=0;fillColor=none;top=0;left=0;bottom=0;right=0;editable=1;overflow=hidden;whiteSpace=wrap;html=1;fontStyle=0" vertex="1" parent="vLq7U2Vf2mniCk7zH5XL-80">
          <mxGeometry width="30" height="31" as="geometry">
            <mxRectangle width="30" height="31" as="alternateBounds" />
          </mxGeometry>
        </mxCell>
        <mxCell id="vLq7U2Vf2mniCk7zH5XL-82" value="&lt;span&gt;PatientID&lt;/span&gt;" style="shape=partialRectangle;connectable=0;fillColor=none;top=0;left=0;bottom=0;right=0;align=left;spacingLeft=6;overflow=hidden;whiteSpace=wrap;html=1;fontStyle=0" vertex="1" parent="vLq7U2Vf2mniCk7zH5XL-80">
          <mxGeometry x="30" width="150" height="31" as="geometry">
            <mxRectangle width="150" height="31" as="alternateBounds" />
          </mxGeometry>
        </mxCell>
        <mxCell id="vLq7U2Vf2mniCk7zH5XL-83" value="" style="shape=tableRow;horizontal=0;startSize=0;swimlaneHead=0;swimlaneBody=0;fillColor=none;collapsible=0;dropTarget=0;points=[[0,0.5],[1,0.5]];portConstraint=eastwest;top=0;left=0;right=0;bottom=0;fontStyle=0" vertex="1" parent="vLq7U2Vf2mniCk7zH5XL-76">
          <mxGeometry y="89" width="180" height="30" as="geometry" />
        </mxCell>
        <mxCell id="vLq7U2Vf2mniCk7zH5XL-84" value="FK" style="shape=partialRectangle;connectable=0;fillColor=none;top=0;left=0;bottom=0;right=0;editable=1;overflow=hidden;whiteSpace=wrap;html=1;fontStyle=0" vertex="1" parent="vLq7U2Vf2mniCk7zH5XL-83">
          <mxGeometry width="30" height="30" as="geometry">
            <mxRectangle width="30" height="30" as="alternateBounds" />
          </mxGeometry>
        </mxCell>
        <mxCell id="vLq7U2Vf2mniCk7zH5XL-85" value="DoctorID" style="shape=partialRectangle;connectable=0;fillColor=none;top=0;left=0;bottom=0;right=0;align=left;spacingLeft=6;overflow=hidden;whiteSpace=wrap;html=1;fontStyle=0" vertex="1" parent="vLq7U2Vf2mniCk7zH5XL-83">
          <mxGeometry x="30" width="150" height="30" as="geometry">
            <mxRectangle width="150" height="30" as="alternateBounds" />
          </mxGeometry>
        </mxCell>
        <mxCell id="vLq7U2Vf2mniCk7zH5XL-86" value="" style="shape=tableRow;horizontal=0;startSize=0;swimlaneHead=0;swimlaneBody=0;fillColor=none;collapsible=0;dropTarget=0;points=[[0,0.5],[1,0.5]];portConstraint=eastwest;top=0;left=0;right=0;bottom=0;fontStyle=0" vertex="1" parent="vLq7U2Vf2mniCk7zH5XL-76">
          <mxGeometry y="119" width="180" height="30" as="geometry" />
        </mxCell>
        <mxCell id="vLq7U2Vf2mniCk7zH5XL-87" value="" style="shape=partialRectangle;connectable=0;fillColor=none;top=0;left=0;bottom=0;right=0;editable=1;overflow=hidden;whiteSpace=wrap;html=1;fontStyle=0" vertex="1" parent="vLq7U2Vf2mniCk7zH5XL-86">
          <mxGeometry width="30" height="30" as="geometry">
            <mxRectangle width="30" height="30" as="alternateBounds" />
          </mxGeometry>
        </mxCell>
        <mxCell id="vLq7U2Vf2mniCk7zH5XL-88" value="AppointmentDateTime" style="shape=partialRectangle;connectable=0;fillColor=none;top=0;left=0;bottom=0;right=0;align=left;spacingLeft=6;overflow=hidden;whiteSpace=wrap;html=1;fontStyle=0" vertex="1" parent="vLq7U2Vf2mniCk7zH5XL-86">
          <mxGeometry x="30" width="150" height="30" as="geometry">
            <mxRectangle width="150" height="30" as="alternateBounds" />
          </mxGeometry>
        </mxCell>
        <mxCell id="vLq7U2Vf2mniCk7zH5XL-89" style="shape=tableRow;horizontal=0;startSize=0;swimlaneHead=0;swimlaneBody=0;fillColor=none;collapsible=0;dropTarget=0;points=[[0,0.5],[1,0.5]];portConstraint=eastwest;top=0;left=0;right=0;bottom=0;fontStyle=0" vertex="1" parent="vLq7U2Vf2mniCk7zH5XL-76">
          <mxGeometry y="149" width="180" height="30" as="geometry" />
        </mxCell>
        <mxCell id="vLq7U2Vf2mniCk7zH5XL-90" style="shape=partialRectangle;connectable=0;fillColor=none;top=0;left=0;bottom=0;right=0;editable=1;overflow=hidden;whiteSpace=wrap;html=1;fontStyle=0" vertex="1" parent="vLq7U2Vf2mniCk7zH5XL-89">
          <mxGeometry width="30" height="30" as="geometry">
            <mxRectangle width="30" height="30" as="alternateBounds" />
          </mxGeometry>
        </mxCell>
        <mxCell id="vLq7U2Vf2mniCk7zH5XL-91" value="&lt;div&gt;ReasonForAppointment&lt;/div&gt;" style="shape=partialRectangle;connectable=0;fillColor=none;top=0;left=0;bottom=0;right=0;align=left;spacingLeft=6;overflow=hidden;whiteSpace=wrap;html=1;fontStyle=0" vertex="1" parent="vLq7U2Vf2mniCk7zH5XL-89">
          <mxGeometry x="30" width="150" height="30" as="geometry">
            <mxRectangle width="150" height="30" as="alternateBounds" />
          </mxGeometry>
        </mxCell>
        <mxCell id="vLq7U2Vf2mniCk7zH5XL-92" style="shape=tableRow;horizontal=0;startSize=0;swimlaneHead=0;swimlaneBody=0;fillColor=none;collapsible=0;dropTarget=0;points=[[0,0.5],[1,0.5]];portConstraint=eastwest;top=0;left=0;right=0;bottom=0;fontStyle=0" vertex="1" parent="vLq7U2Vf2mniCk7zH5XL-76">
          <mxGeometry y="179" width="180" height="30" as="geometry" />
        </mxCell>
        <mxCell id="vLq7U2Vf2mniCk7zH5XL-93" style="shape=partialRectangle;connectable=0;fillColor=none;top=0;left=0;bottom=0;right=0;editable=1;overflow=hidden;whiteSpace=wrap;html=1;fontStyle=0" vertex="1" parent="vLq7U2Vf2mniCk7zH5XL-92">
          <mxGeometry width="30" height="30" as="geometry">
            <mxRectangle width="30" height="30" as="alternateBounds" />
          </mxGeometry>
        </mxCell>
        <mxCell id="vLq7U2Vf2mniCk7zH5XL-94" value="Status" style="shape=partialRectangle;connectable=0;fillColor=none;top=0;left=0;bottom=0;right=0;align=left;spacingLeft=6;overflow=hidden;whiteSpace=wrap;html=1;fontStyle=0" vertex="1" parent="vLq7U2Vf2mniCk7zH5XL-92">
          <mxGeometry x="30" width="150" height="30" as="geometry">
            <mxRectangle width="150" height="30" as="alternateBounds" />
          </mxGeometry>
        </mxCell>
        <mxCell id="vLq7U2Vf2mniCk7zH5XL-95" style="edgeStyle=orthogonalEdgeStyle;rounded=0;orthogonalLoop=1;jettySize=auto;html=1;entryX=0;entryY=0.5;entryDx=0;entryDy=0;startArrow=none;startFill=0;endArrow=none;endFill=0;fontStyle=0" edge="1" parent="1" source="vLq7U2Vf2mniCk7zH5XL-80" target="vLq7U2Vf2mniCk7zH5XL-2">
          <mxGeometry relative="1" as="geometry" />
        </mxCell>
        <mxCell id="vLq7U2Vf2mniCk7zH5XL-96" value="&lt;div&gt;ServicesPerformed&lt;/div&gt;" style="shape=table;startSize=30;container=1;collapsible=1;childLayout=tableLayout;fixedRows=1;rowLines=0;fontStyle=0;align=center;resizeLast=1;html=1;fillColor=#FFFFFF;" vertex="1" parent="1">
          <mxGeometry x="-788" y="273" width="194.67307692307688" height="120" as="geometry" />
        </mxCell>
        <mxCell id="vLq7U2Vf2mniCk7zH5XL-97" value="" style="shape=tableRow;horizontal=0;startSize=0;swimlaneHead=0;swimlaneBody=0;fillColor=none;collapsible=0;dropTarget=0;points=[[0,0.5],[1,0.5]];portConstraint=eastwest;top=0;left=0;right=0;bottom=1;fontStyle=0" vertex="1" parent="vLq7U2Vf2mniCk7zH5XL-96">
          <mxGeometry y="30" width="194.67307692307688" height="30" as="geometry" />
        </mxCell>
        <mxCell id="vLq7U2Vf2mniCk7zH5XL-98" value="PK" style="shape=partialRectangle;connectable=0;fillColor=none;top=0;left=0;bottom=0;right=0;fontStyle=0;overflow=hidden;whiteSpace=wrap;html=1;" vertex="1" parent="vLq7U2Vf2mniCk7zH5XL-97">
          <mxGeometry width="30" height="30" as="geometry">
            <mxRectangle width="30" height="30" as="alternateBounds" />
          </mxGeometry>
        </mxCell>
        <mxCell id="vLq7U2Vf2mniCk7zH5XL-99" value="ServicePerformedID" style="shape=partialRectangle;connectable=0;fillColor=none;top=0;left=0;bottom=0;right=0;align=left;spacingLeft=6;fontStyle=0;overflow=hidden;whiteSpace=wrap;html=1;" vertex="1" parent="vLq7U2Vf2mniCk7zH5XL-97">
          <mxGeometry x="30" width="164.67307692307688" height="30" as="geometry">
            <mxRectangle width="164.67307692307688" height="30" as="alternateBounds" />
          </mxGeometry>
        </mxCell>
        <mxCell id="vLq7U2Vf2mniCk7zH5XL-100" value="" style="shape=tableRow;horizontal=0;startSize=0;swimlaneHead=0;swimlaneBody=0;fillColor=none;collapsible=0;dropTarget=0;points=[[0,0.5],[1,0.5]];portConstraint=eastwest;top=0;left=0;right=0;bottom=0;fontStyle=0" vertex="1" parent="vLq7U2Vf2mniCk7zH5XL-96">
          <mxGeometry y="60" width="194.67307692307688" height="30" as="geometry" />
        </mxCell>
        <mxCell id="vLq7U2Vf2mniCk7zH5XL-101" value="FK" style="shape=partialRectangle;connectable=0;fillColor=none;top=0;left=0;bottom=0;right=0;editable=1;overflow=hidden;whiteSpace=wrap;html=1;fontStyle=0" vertex="1" parent="vLq7U2Vf2mniCk7zH5XL-100">
          <mxGeometry width="30" height="30" as="geometry">
            <mxRectangle width="30" height="30" as="alternateBounds" />
          </mxGeometry>
        </mxCell>
        <mxCell id="vLq7U2Vf2mniCk7zH5XL-102" value="&lt;span&gt;AppointmentID&lt;/span&gt;" style="shape=partialRectangle;connectable=0;fillColor=none;top=0;left=0;bottom=0;right=0;align=left;spacingLeft=6;overflow=hidden;whiteSpace=wrap;html=1;fontStyle=0" vertex="1" parent="vLq7U2Vf2mniCk7zH5XL-100">
          <mxGeometry x="30" width="164.67307692307688" height="30" as="geometry">
            <mxRectangle width="164.67307692307688" height="30" as="alternateBounds" />
          </mxGeometry>
        </mxCell>
        <mxCell id="vLq7U2Vf2mniCk7zH5XL-103" value="" style="shape=tableRow;horizontal=0;startSize=0;swimlaneHead=0;swimlaneBody=0;fillColor=none;collapsible=0;dropTarget=0;points=[[0,0.5],[1,0.5]];portConstraint=eastwest;top=0;left=0;right=0;bottom=0;fontStyle=0" vertex="1" parent="vLq7U2Vf2mniCk7zH5XL-96">
          <mxGeometry y="90" width="194.67307692307688" height="30" as="geometry" />
        </mxCell>
        <mxCell id="vLq7U2Vf2mniCk7zH5XL-104" value="FK" style="shape=partialRectangle;connectable=0;fillColor=none;top=0;left=0;bottom=0;right=0;editable=1;overflow=hidden;whiteSpace=wrap;html=1;fontStyle=0" vertex="1" parent="vLq7U2Vf2mniCk7zH5XL-103">
          <mxGeometry width="30" height="30" as="geometry">
            <mxRectangle width="30" height="30" as="alternateBounds" />
          </mxGeometry>
        </mxCell>
        <mxCell id="vLq7U2Vf2mniCk7zH5XL-105" value="&lt;span&gt;ServiceID&lt;/span&gt;" style="shape=partialRectangle;connectable=0;fillColor=none;top=0;left=0;bottom=0;right=0;align=left;spacingLeft=6;overflow=hidden;whiteSpace=wrap;html=1;fontStyle=0" vertex="1" parent="vLq7U2Vf2mniCk7zH5XL-103">
          <mxGeometry x="30" width="164.67307692307688" height="30" as="geometry">
            <mxRectangle width="164.67307692307688" height="30" as="alternateBounds" />
          </mxGeometry>
        </mxCell>
        <mxCell id="vLq7U2Vf2mniCk7zH5XL-106" value="&lt;div&gt;Bills&lt;/div&gt;" style="shape=table;startSize=30;container=1;collapsible=1;childLayout=tableLayout;fixedRows=1;rowLines=0;fontStyle=0;align=center;resizeLast=1;html=1;fillColor=#FFFFFF;" vertex="1" parent="1">
          <mxGeometry x="-462" y="386" width="180" height="178" as="geometry" />
        </mxCell>
        <mxCell id="vLq7U2Vf2mniCk7zH5XL-107" value="" style="shape=tableRow;horizontal=0;startSize=0;swimlaneHead=0;swimlaneBody=0;fillColor=none;collapsible=0;dropTarget=0;points=[[0,0.5],[1,0.5]];portConstraint=eastwest;top=0;left=0;right=0;bottom=1;fontStyle=0" vertex="1" parent="vLq7U2Vf2mniCk7zH5XL-106">
          <mxGeometry y="30" width="180" height="28" as="geometry" />
        </mxCell>
        <mxCell id="vLq7U2Vf2mniCk7zH5XL-108" value="PK" style="shape=partialRectangle;connectable=0;fillColor=none;top=0;left=0;bottom=0;right=0;fontStyle=0;overflow=hidden;whiteSpace=wrap;html=1;" vertex="1" parent="vLq7U2Vf2mniCk7zH5XL-107">
          <mxGeometry width="30" height="28" as="geometry">
            <mxRectangle width="30" height="28" as="alternateBounds" />
          </mxGeometry>
        </mxCell>
        <mxCell id="vLq7U2Vf2mniCk7zH5XL-109" value="&lt;div&gt;BillID&lt;/div&gt;" style="shape=partialRectangle;connectable=0;fillColor=none;top=0;left=0;bottom=0;right=0;align=left;spacingLeft=6;fontStyle=0;overflow=hidden;whiteSpace=wrap;html=1;" vertex="1" parent="vLq7U2Vf2mniCk7zH5XL-107">
          <mxGeometry x="30" width="150" height="28" as="geometry">
            <mxRectangle width="150" height="28" as="alternateBounds" />
          </mxGeometry>
        </mxCell>
        <mxCell id="vLq7U2Vf2mniCk7zH5XL-110" style="shape=tableRow;horizontal=0;startSize=0;swimlaneHead=0;swimlaneBody=0;fillColor=none;collapsible=0;dropTarget=0;points=[[0,0.5],[1,0.5]];portConstraint=eastwest;top=0;left=0;right=0;bottom=0;swimlaneLine=1;fontStyle=0" vertex="1" parent="vLq7U2Vf2mniCk7zH5XL-106">
          <mxGeometry y="58" width="180" height="30" as="geometry" />
        </mxCell>
        <mxCell id="vLq7U2Vf2mniCk7zH5XL-111" value="FK" style="shape=partialRectangle;connectable=0;fillColor=none;top=0;left=0;bottom=0;right=0;editable=1;overflow=hidden;whiteSpace=wrap;html=1;fontStyle=0" vertex="1" parent="vLq7U2Vf2mniCk7zH5XL-110">
          <mxGeometry width="30" height="30" as="geometry">
            <mxRectangle width="30" height="30" as="alternateBounds" />
          </mxGeometry>
        </mxCell>
        <mxCell id="vLq7U2Vf2mniCk7zH5XL-112" value="AppointmentID" style="shape=partialRectangle;connectable=0;fillColor=none;top=0;left=0;bottom=0;right=0;align=left;spacingLeft=6;overflow=hidden;whiteSpace=wrap;html=1;fontStyle=0" vertex="1" parent="vLq7U2Vf2mniCk7zH5XL-110">
          <mxGeometry x="30" width="150" height="30" as="geometry">
            <mxRectangle width="150" height="30" as="alternateBounds" />
          </mxGeometry>
        </mxCell>
        <mxCell id="vLq7U2Vf2mniCk7zH5XL-113" value="" style="shape=tableRow;horizontal=0;startSize=0;swimlaneHead=0;swimlaneBody=0;fillColor=none;collapsible=0;dropTarget=0;points=[[0,0.5],[1,0.5]];portConstraint=eastwest;top=0;left=0;right=0;bottom=0;fontStyle=0" vertex="1" parent="vLq7U2Vf2mniCk7zH5XL-106">
          <mxGeometry y="88" width="180" height="30" as="geometry" />
        </mxCell>
        <mxCell id="vLq7U2Vf2mniCk7zH5XL-114" value="" style="shape=partialRectangle;connectable=0;fillColor=none;top=0;left=0;bottom=0;right=0;editable=1;overflow=hidden;whiteSpace=wrap;html=1;fontStyle=0" vertex="1" parent="vLq7U2Vf2mniCk7zH5XL-113">
          <mxGeometry width="30" height="30" as="geometry">
            <mxRectangle width="30" height="30" as="alternateBounds" />
          </mxGeometry>
        </mxCell>
        <mxCell id="vLq7U2Vf2mniCk7zH5XL-115" value="&lt;div&gt;BillingDate&lt;/div&gt;" style="shape=partialRectangle;connectable=0;fillColor=none;top=0;left=0;bottom=0;right=0;align=left;spacingLeft=6;overflow=hidden;whiteSpace=wrap;html=1;fontStyle=0" vertex="1" parent="vLq7U2Vf2mniCk7zH5XL-113">
          <mxGeometry x="30" width="150" height="30" as="geometry">
            <mxRectangle width="150" height="30" as="alternateBounds" />
          </mxGeometry>
        </mxCell>
        <mxCell id="vLq7U2Vf2mniCk7zH5XL-116" style="shape=tableRow;horizontal=0;startSize=0;swimlaneHead=0;swimlaneBody=0;fillColor=none;collapsible=0;dropTarget=0;points=[[0,0.5],[1,0.5]];portConstraint=eastwest;top=0;left=0;right=0;bottom=0;fontStyle=0" vertex="1" parent="vLq7U2Vf2mniCk7zH5XL-106">
          <mxGeometry y="118" width="180" height="30" as="geometry" />
        </mxCell>
        <mxCell id="vLq7U2Vf2mniCk7zH5XL-117" style="shape=partialRectangle;connectable=0;fillColor=none;top=0;left=0;bottom=0;right=0;editable=1;overflow=hidden;whiteSpace=wrap;html=1;fontStyle=0" vertex="1" parent="vLq7U2Vf2mniCk7zH5XL-116">
          <mxGeometry width="30" height="30" as="geometry">
            <mxRectangle width="30" height="30" as="alternateBounds" />
          </mxGeometry>
        </mxCell>
        <mxCell id="vLq7U2Vf2mniCk7zH5XL-118" value="TotalAmount" style="shape=partialRectangle;connectable=0;fillColor=none;top=0;left=0;bottom=0;right=0;align=left;spacingLeft=6;overflow=hidden;whiteSpace=wrap;html=1;fontStyle=0" vertex="1" parent="vLq7U2Vf2mniCk7zH5XL-116">
          <mxGeometry x="30" width="150" height="30" as="geometry">
            <mxRectangle width="150" height="30" as="alternateBounds" />
          </mxGeometry>
        </mxCell>
        <mxCell id="vLq7U2Vf2mniCk7zH5XL-119" style="shape=tableRow;horizontal=0;startSize=0;swimlaneHead=0;swimlaneBody=0;fillColor=none;collapsible=0;dropTarget=0;points=[[0,0.5],[1,0.5]];portConstraint=eastwest;top=0;left=0;right=0;bottom=0;fontStyle=0" vertex="1" parent="vLq7U2Vf2mniCk7zH5XL-106">
          <mxGeometry y="148" width="180" height="30" as="geometry" />
        </mxCell>
        <mxCell id="vLq7U2Vf2mniCk7zH5XL-120" style="shape=partialRectangle;connectable=0;fillColor=none;top=0;left=0;bottom=0;right=0;editable=1;overflow=hidden;whiteSpace=wrap;html=1;fontStyle=0" vertex="1" parent="vLq7U2Vf2mniCk7zH5XL-119">
          <mxGeometry width="30" height="30" as="geometry">
            <mxRectangle width="30" height="30" as="alternateBounds" />
          </mxGeometry>
        </mxCell>
        <mxCell id="vLq7U2Vf2mniCk7zH5XL-121" value="status" style="shape=partialRectangle;connectable=0;fillColor=none;top=0;left=0;bottom=0;right=0;align=left;spacingLeft=6;overflow=hidden;whiteSpace=wrap;html=1;fontStyle=0" vertex="1" parent="vLq7U2Vf2mniCk7zH5XL-119">
          <mxGeometry x="30" width="150" height="30" as="geometry">
            <mxRectangle width="150" height="30" as="alternateBounds" />
          </mxGeometry>
        </mxCell>
        <mxCell id="vLq7U2Vf2mniCk7zH5XL-122" value="Users" style="shape=table;startSize=30;container=1;collapsible=1;childLayout=tableLayout;fixedRows=1;rowLines=0;fontStyle=0;align=center;resizeLast=1;html=1;fillColor=#FFFFFF;" vertex="1" parent="1">
          <mxGeometry x="-727" y="689" width="180" height="296.30952380952374" as="geometry" />
        </mxCell>
        <mxCell id="vLq7U2Vf2mniCk7zH5XL-123" value="" style="shape=tableRow;horizontal=0;startSize=0;swimlaneHead=0;swimlaneBody=0;fillColor=none;collapsible=0;dropTarget=0;points=[[0,0.5],[1,0.5]];portConstraint=eastwest;top=0;left=0;right=0;bottom=1;fontStyle=0" vertex="1" parent="vLq7U2Vf2mniCk7zH5XL-122">
          <mxGeometry y="30" width="180" height="28" as="geometry" />
        </mxCell>
        <mxCell id="vLq7U2Vf2mniCk7zH5XL-124" value="PK" style="shape=partialRectangle;connectable=0;fillColor=none;top=0;left=0;bottom=0;right=0;fontStyle=0;overflow=hidden;whiteSpace=wrap;html=1;" vertex="1" parent="vLq7U2Vf2mniCk7zH5XL-123">
          <mxGeometry width="30" height="28" as="geometry">
            <mxRectangle width="30" height="28" as="alternateBounds" />
          </mxGeometry>
        </mxCell>
        <mxCell id="vLq7U2Vf2mniCk7zH5XL-125" value="UserID" style="shape=partialRectangle;connectable=0;fillColor=none;top=0;left=0;bottom=0;right=0;align=left;spacingLeft=6;fontStyle=0;overflow=hidden;whiteSpace=wrap;html=1;" vertex="1" parent="vLq7U2Vf2mniCk7zH5XL-123">
          <mxGeometry x="30" width="150" height="28" as="geometry">
            <mxRectangle width="150" height="28" as="alternateBounds" />
          </mxGeometry>
        </mxCell>
        <mxCell id="vLq7U2Vf2mniCk7zH5XL-126" value="" style="shape=tableRow;horizontal=0;startSize=0;swimlaneHead=0;swimlaneBody=0;fillColor=none;collapsible=0;dropTarget=0;points=[[0,0.5],[1,0.5]];portConstraint=eastwest;top=0;left=0;right=0;bottom=0;fontStyle=0" vertex="1" parent="vLq7U2Vf2mniCk7zH5XL-122">
          <mxGeometry y="58" width="180" height="30" as="geometry" />
        </mxCell>
        <mxCell id="vLq7U2Vf2mniCk7zH5XL-127" value="" style="shape=partialRectangle;connectable=0;fillColor=none;top=0;left=0;bottom=0;right=0;editable=1;overflow=hidden;whiteSpace=wrap;html=1;fontStyle=0" vertex="1" parent="vLq7U2Vf2mniCk7zH5XL-126">
          <mxGeometry width="30" height="30" as="geometry">
            <mxRectangle width="30" height="30" as="alternateBounds" />
          </mxGeometry>
        </mxCell>
        <mxCell id="vLq7U2Vf2mniCk7zH5XL-128" value="username" style="shape=partialRectangle;connectable=0;fillColor=none;top=0;left=0;bottom=0;right=0;align=left;spacingLeft=6;overflow=hidden;whiteSpace=wrap;html=1;fontStyle=0" vertex="1" parent="vLq7U2Vf2mniCk7zH5XL-126">
          <mxGeometry x="30" width="150" height="30" as="geometry">
            <mxRectangle width="150" height="30" as="alternateBounds" />
          </mxGeometry>
        </mxCell>
        <mxCell id="vLq7U2Vf2mniCk7zH5XL-129" style="shape=tableRow;horizontal=0;startSize=0;swimlaneHead=0;swimlaneBody=0;fillColor=none;collapsible=0;dropTarget=0;points=[[0,0.5],[1,0.5]];portConstraint=eastwest;top=0;left=0;right=0;bottom=0;fontStyle=0" vertex="1" parent="vLq7U2Vf2mniCk7zH5XL-122">
          <mxGeometry y="88" width="180" height="30" as="geometry" />
        </mxCell>
        <mxCell id="vLq7U2Vf2mniCk7zH5XL-130" style="shape=partialRectangle;connectable=0;fillColor=none;top=0;left=0;bottom=0;right=0;editable=1;overflow=hidden;whiteSpace=wrap;html=1;fontStyle=0" vertex="1" parent="vLq7U2Vf2mniCk7zH5XL-129">
          <mxGeometry width="30" height="30" as="geometry">
            <mxRectangle width="30" height="30" as="alternateBounds" />
          </mxGeometry>
        </mxCell>
        <mxCell id="vLq7U2Vf2mniCk7zH5XL-131" value="&lt;div&gt;password&lt;/div&gt;" style="shape=partialRectangle;connectable=0;fillColor=none;top=0;left=0;bottom=0;right=0;align=left;spacingLeft=6;overflow=hidden;whiteSpace=wrap;html=1;fontStyle=0" vertex="1" parent="vLq7U2Vf2mniCk7zH5XL-129">
          <mxGeometry x="30" width="150" height="30" as="geometry">
            <mxRectangle width="150" height="30" as="alternateBounds" />
          </mxGeometry>
        </mxCell>
        <mxCell id="vLq7U2Vf2mniCk7zH5XL-132" style="shape=tableRow;horizontal=0;startSize=0;swimlaneHead=0;swimlaneBody=0;fillColor=none;collapsible=0;dropTarget=0;points=[[0,0.5],[1,0.5]];portConstraint=eastwest;top=0;left=0;right=0;bottom=0;fontStyle=0" vertex="1" parent="vLq7U2Vf2mniCk7zH5XL-122">
          <mxGeometry y="118" width="180" height="30" as="geometry" />
        </mxCell>
        <mxCell id="vLq7U2Vf2mniCk7zH5XL-133" style="shape=partialRectangle;connectable=0;fillColor=none;top=0;left=0;bottom=0;right=0;editable=1;overflow=hidden;whiteSpace=wrap;html=1;fontStyle=0" vertex="1" parent="vLq7U2Vf2mniCk7zH5XL-132">
          <mxGeometry width="30" height="30" as="geometry">
            <mxRectangle width="30" height="30" as="alternateBounds" />
          </mxGeometry>
        </mxCell>
        <mxCell id="vLq7U2Vf2mniCk7zH5XL-134" value="accType" style="shape=partialRectangle;connectable=0;fillColor=none;top=0;left=0;bottom=0;right=0;align=left;spacingLeft=6;overflow=hidden;whiteSpace=wrap;html=1;fontStyle=0" vertex="1" parent="vLq7U2Vf2mniCk7zH5XL-132">
          <mxGeometry x="30" width="150" height="30" as="geometry">
            <mxRectangle width="150" height="30" as="alternateBounds" />
          </mxGeometry>
        </mxCell>
        <mxCell id="vLq7U2Vf2mniCk7zH5XL-135" style="shape=tableRow;horizontal=0;startSize=0;swimlaneHead=0;swimlaneBody=0;fillColor=none;collapsible=0;dropTarget=0;points=[[0,0.5],[1,0.5]];portConstraint=eastwest;top=0;left=0;right=0;bottom=0;fontStyle=0" vertex="1" parent="vLq7U2Vf2mniCk7zH5XL-122">
          <mxGeometry y="148" width="180" height="30" as="geometry" />
        </mxCell>
        <mxCell id="vLq7U2Vf2mniCk7zH5XL-136" style="shape=partialRectangle;connectable=0;fillColor=none;top=0;left=0;bottom=0;right=0;editable=1;overflow=hidden;whiteSpace=wrap;html=1;fontStyle=0" vertex="1" parent="vLq7U2Vf2mniCk7zH5XL-135">
          <mxGeometry width="30" height="30" as="geometry">
            <mxRectangle width="30" height="30" as="alternateBounds" />
          </mxGeometry>
        </mxCell>
        <mxCell id="vLq7U2Vf2mniCk7zH5XL-137" value="&lt;div&gt;EmailAddress&lt;/div&gt;" style="shape=partialRectangle;connectable=0;fillColor=none;top=0;left=0;bottom=0;right=0;align=left;spacingLeft=6;overflow=hidden;whiteSpace=wrap;html=1;fontStyle=0" vertex="1" parent="vLq7U2Vf2mniCk7zH5XL-135">
          <mxGeometry x="30" width="150" height="30" as="geometry">
            <mxRectangle width="150" height="30" as="alternateBounds" />
          </mxGeometry>
        </mxCell>
        <mxCell id="vLq7U2Vf2mniCk7zH5XL-138" style="shape=tableRow;horizontal=0;startSize=0;swimlaneHead=0;swimlaneBody=0;fillColor=none;collapsible=0;dropTarget=0;points=[[0,0.5],[1,0.5]];portConstraint=eastwest;top=0;left=0;right=0;bottom=0;fontStyle=0" vertex="1" parent="vLq7U2Vf2mniCk7zH5XL-122">
          <mxGeometry y="178" width="180" height="28" as="geometry" />
        </mxCell>
        <mxCell id="vLq7U2Vf2mniCk7zH5XL-139" style="shape=partialRectangle;connectable=0;fillColor=none;top=0;left=0;bottom=0;right=0;editable=1;overflow=hidden;whiteSpace=wrap;html=1;fontStyle=0" vertex="1" parent="vLq7U2Vf2mniCk7zH5XL-138">
          <mxGeometry width="30" height="28" as="geometry">
            <mxRectangle width="30" height="28" as="alternateBounds" />
          </mxGeometry>
        </mxCell>
        <mxCell id="vLq7U2Vf2mniCk7zH5XL-140" value="ContactNumber" style="shape=partialRectangle;connectable=0;fillColor=none;top=0;left=0;bottom=0;right=0;align=left;spacingLeft=6;overflow=hidden;whiteSpace=wrap;html=1;fontStyle=0" vertex="1" parent="vLq7U2Vf2mniCk7zH5XL-138">
          <mxGeometry x="30" width="150" height="28" as="geometry">
            <mxRectangle width="150" height="28" as="alternateBounds" />
          </mxGeometry>
        </mxCell>
        <mxCell id="vLq7U2Vf2mniCk7zH5XL-141" style="shape=tableRow;horizontal=0;startSize=0;swimlaneHead=0;swimlaneBody=0;fillColor=none;collapsible=0;dropTarget=0;points=[[0,0.5],[1,0.5]];portConstraint=eastwest;top=0;left=0;right=0;bottom=0;fontStyle=0" vertex="1" parent="vLq7U2Vf2mniCk7zH5XL-122">
          <mxGeometry y="206" width="180" height="30" as="geometry" />
        </mxCell>
        <mxCell id="vLq7U2Vf2mniCk7zH5XL-142" style="shape=partialRectangle;connectable=0;fillColor=none;top=0;left=0;bottom=0;right=0;editable=1;overflow=hidden;whiteSpace=wrap;html=1;fontStyle=0" vertex="1" parent="vLq7U2Vf2mniCk7zH5XL-141">
          <mxGeometry width="30" height="30" as="geometry">
            <mxRectangle width="30" height="30" as="alternateBounds" />
          </mxGeometry>
        </mxCell>
        <mxCell id="vLq7U2Vf2mniCk7zH5XL-143" value="&lt;div&gt;AltContactNumber&lt;/div&gt;" style="shape=partialRectangle;connectable=0;fillColor=none;top=0;left=0;bottom=0;right=0;align=left;spacingLeft=6;overflow=hidden;whiteSpace=wrap;html=1;fontStyle=0" vertex="1" parent="vLq7U2Vf2mniCk7zH5XL-141">
          <mxGeometry x="30" width="150" height="30" as="geometry">
            <mxRectangle width="150" height="30" as="alternateBounds" />
          </mxGeometry>
        </mxCell>
        <mxCell id="vLq7U2Vf2mniCk7zH5XL-144" style="shape=tableRow;horizontal=0;startSize=0;swimlaneHead=0;swimlaneBody=0;fillColor=none;collapsible=0;dropTarget=0;points=[[0,0.5],[1,0.5]];portConstraint=eastwest;top=0;left=0;right=0;bottom=0;fontStyle=0" vertex="1" parent="vLq7U2Vf2mniCk7zH5XL-122">
          <mxGeometry y="236" width="180" height="30" as="geometry" />
        </mxCell>
        <mxCell id="vLq7U2Vf2mniCk7zH5XL-145" style="shape=partialRectangle;connectable=0;fillColor=none;top=0;left=0;bottom=0;right=0;editable=1;overflow=hidden;whiteSpace=wrap;html=1;fontStyle=0" vertex="1" parent="vLq7U2Vf2mniCk7zH5XL-144">
          <mxGeometry width="30" height="30" as="geometry">
            <mxRectangle width="30" height="30" as="alternateBounds" />
          </mxGeometry>
        </mxCell>
        <mxCell id="vLq7U2Vf2mniCk7zH5XL-146" value="Address" style="shape=partialRectangle;connectable=0;fillColor=none;top=0;left=0;bottom=0;right=0;align=left;spacingLeft=6;overflow=hidden;whiteSpace=wrap;html=1;fontStyle=0" vertex="1" parent="vLq7U2Vf2mniCk7zH5XL-144">
          <mxGeometry x="30" width="150" height="30" as="geometry">
            <mxRectangle width="150" height="30" as="alternateBounds" />
          </mxGeometry>
        </mxCell>
        <mxCell id="vLq7U2Vf2mniCk7zH5XL-147" style="shape=tableRow;horizontal=0;startSize=0;swimlaneHead=0;swimlaneBody=0;fillColor=none;collapsible=0;dropTarget=0;points=[[0,0.5],[1,0.5]];portConstraint=eastwest;top=0;left=0;right=0;bottom=0;fontStyle=0" vertex="1" parent="vLq7U2Vf2mniCk7zH5XL-122">
          <mxGeometry y="266" width="180" height="30" as="geometry" />
        </mxCell>
        <mxCell id="vLq7U2Vf2mniCk7zH5XL-148" style="shape=partialRectangle;connectable=0;fillColor=none;top=0;left=0;bottom=0;right=0;editable=1;overflow=hidden;whiteSpace=wrap;html=1;fontStyle=0" vertex="1" parent="vLq7U2Vf2mniCk7zH5XL-147">
          <mxGeometry width="30" height="30" as="geometry">
            <mxRectangle width="30" height="30" as="alternateBounds" />
          </mxGeometry>
        </mxCell>
        <mxCell id="vLq7U2Vf2mniCk7zH5XL-149" value="status" style="shape=partialRectangle;connectable=0;fillColor=none;top=0;left=0;bottom=0;right=0;align=left;spacingLeft=6;overflow=hidden;whiteSpace=wrap;html=1;fontStyle=0" vertex="1" parent="vLq7U2Vf2mniCk7zH5XL-147">
          <mxGeometry x="30" width="150" height="30" as="geometry">
            <mxRectangle width="150" height="30" as="alternateBounds" />
          </mxGeometry>
        </mxCell>
        <mxCell id="vLq7U2Vf2mniCk7zH5XL-150" style="edgeStyle=orthogonalEdgeStyle;rounded=0;orthogonalLoop=1;jettySize=auto;html=1;endArrow=none;startFill=0;" edge="1" parent="1" source="vLq7U2Vf2mniCk7zH5XL-61" target="vLq7U2Vf2mniCk7zH5XL-103">
          <mxGeometry relative="1" as="geometry">
            <Array as="points">
              <mxPoint x="-798" y="467" />
              <mxPoint x="-798" y="378" />
            </Array>
          </mxGeometry>
        </mxCell>
        <mxCell id="vLq7U2Vf2mniCk7zH5XL-151" style="edgeStyle=orthogonalEdgeStyle;rounded=0;orthogonalLoop=1;jettySize=auto;html=1;endArrow=none;startFill=0;" edge="1" parent="1" source="vLq7U2Vf2mniCk7zH5XL-77" target="vLq7U2Vf2mniCk7zH5XL-100">
          <mxGeometry relative="1" as="geometry">
            <Array as="points">
              <mxPoint x="-496" y="164" />
              <mxPoint x="-496" y="351" />
            </Array>
          </mxGeometry>
        </mxCell>
        <mxCell id="vLq7U2Vf2mniCk7zH5XL-152" value="&lt;div&gt;Receptionist&lt;/div&gt;" style="shape=table;startSize=30;container=1;collapsible=1;childLayout=tableLayout;fixedRows=1;rowLines=0;fontStyle=0;align=center;resizeLast=1;html=1;fillColor=#FFFFFF;" vertex="1" parent="1">
          <mxGeometry x="-488" y="784" width="180" height="180.09523809523807" as="geometry" />
        </mxCell>
        <mxCell id="vLq7U2Vf2mniCk7zH5XL-153" value="" style="shape=tableRow;horizontal=0;startSize=0;swimlaneHead=0;swimlaneBody=0;fillColor=none;collapsible=0;dropTarget=0;points=[[0,0.5],[1,0.5]];portConstraint=eastwest;top=0;left=0;right=0;bottom=1;fontStyle=0" vertex="1" parent="vLq7U2Vf2mniCk7zH5XL-152">
          <mxGeometry y="30" width="180" height="30" as="geometry" />
        </mxCell>
        <mxCell id="vLq7U2Vf2mniCk7zH5XL-154" value="PK" style="shape=partialRectangle;connectable=0;fillColor=none;top=0;left=0;bottom=0;right=0;fontStyle=0;overflow=hidden;whiteSpace=wrap;html=1;" vertex="1" parent="vLq7U2Vf2mniCk7zH5XL-153">
          <mxGeometry width="30" height="30" as="geometry">
            <mxRectangle width="30" height="30" as="alternateBounds" />
          </mxGeometry>
        </mxCell>
        <mxCell id="vLq7U2Vf2mniCk7zH5XL-155" value="&lt;div&gt;ReceptionistID&lt;/div&gt;" style="shape=partialRectangle;connectable=0;fillColor=none;top=0;left=0;bottom=0;right=0;align=left;spacingLeft=6;fontStyle=0;overflow=hidden;whiteSpace=wrap;html=1;" vertex="1" parent="vLq7U2Vf2mniCk7zH5XL-153">
          <mxGeometry x="30" width="150" height="30" as="geometry">
            <mxRectangle width="150" height="30" as="alternateBounds" />
          </mxGeometry>
        </mxCell>
        <mxCell id="vLq7U2Vf2mniCk7zH5XL-156" style="shape=tableRow;horizontal=0;startSize=0;swimlaneHead=0;swimlaneBody=0;fillColor=none;collapsible=0;dropTarget=0;points=[[0,0.5],[1,0.5]];portConstraint=eastwest;top=0;left=0;right=0;bottom=1;fontStyle=0" vertex="1" parent="vLq7U2Vf2mniCk7zH5XL-152">
          <mxGeometry y="60" width="180" height="30" as="geometry" />
        </mxCell>
        <mxCell id="vLq7U2Vf2mniCk7zH5XL-157" value="FK" style="shape=partialRectangle;connectable=0;fillColor=none;top=0;left=0;bottom=0;right=0;fontStyle=0;overflow=hidden;whiteSpace=wrap;html=1;" vertex="1" parent="vLq7U2Vf2mniCk7zH5XL-156">
          <mxGeometry width="30" height="30" as="geometry">
            <mxRectangle width="30" height="30" as="alternateBounds" />
          </mxGeometry>
        </mxCell>
        <mxCell id="vLq7U2Vf2mniCk7zH5XL-158" value="&lt;div&gt;UserID&lt;/div&gt;" style="shape=partialRectangle;connectable=0;fillColor=none;top=0;left=0;bottom=0;right=0;align=left;spacingLeft=6;fontStyle=0;overflow=hidden;whiteSpace=wrap;html=1;" vertex="1" parent="vLq7U2Vf2mniCk7zH5XL-156">
          <mxGeometry x="30" width="150" height="30" as="geometry">
            <mxRectangle width="150" height="30" as="alternateBounds" />
          </mxGeometry>
        </mxCell>
        <mxCell id="vLq7U2Vf2mniCk7zH5XL-159" value="" style="shape=tableRow;horizontal=0;startSize=0;swimlaneHead=0;swimlaneBody=0;fillColor=none;collapsible=0;dropTarget=0;points=[[0,0.5],[1,0.5]];portConstraint=eastwest;top=0;left=0;right=0;bottom=0;fontStyle=0" vertex="1" parent="vLq7U2Vf2mniCk7zH5XL-152">
          <mxGeometry y="90" width="180" height="30" as="geometry" />
        </mxCell>
        <mxCell id="vLq7U2Vf2mniCk7zH5XL-160" value="" style="shape=partialRectangle;connectable=0;fillColor=none;top=0;left=0;bottom=0;right=0;editable=1;overflow=hidden;whiteSpace=wrap;html=1;fontStyle=0" vertex="1" parent="vLq7U2Vf2mniCk7zH5XL-159">
          <mxGeometry width="30" height="30" as="geometry">
            <mxRectangle width="30" height="30" as="alternateBounds" />
          </mxGeometry>
        </mxCell>
        <mxCell id="vLq7U2Vf2mniCk7zH5XL-161" value="FirstName" style="shape=partialRectangle;connectable=0;fillColor=none;top=0;left=0;bottom=0;right=0;align=left;spacingLeft=6;overflow=hidden;whiteSpace=wrap;html=1;fontStyle=0" vertex="1" parent="vLq7U2Vf2mniCk7zH5XL-159">
          <mxGeometry x="30" width="150" height="30" as="geometry">
            <mxRectangle width="150" height="30" as="alternateBounds" />
          </mxGeometry>
        </mxCell>
        <mxCell id="vLq7U2Vf2mniCk7zH5XL-162" value="" style="shape=tableRow;horizontal=0;startSize=0;swimlaneHead=0;swimlaneBody=0;fillColor=none;collapsible=0;dropTarget=0;points=[[0,0.5],[1,0.5]];portConstraint=eastwest;top=0;left=0;right=0;bottom=0;fontStyle=0" vertex="1" parent="vLq7U2Vf2mniCk7zH5XL-152">
          <mxGeometry y="120" width="180" height="30" as="geometry" />
        </mxCell>
        <mxCell id="vLq7U2Vf2mniCk7zH5XL-163" value="" style="shape=partialRectangle;connectable=0;fillColor=none;top=0;left=0;bottom=0;right=0;editable=1;overflow=hidden;whiteSpace=wrap;html=1;fontStyle=0" vertex="1" parent="vLq7U2Vf2mniCk7zH5XL-162">
          <mxGeometry width="30" height="30" as="geometry">
            <mxRectangle width="30" height="30" as="alternateBounds" />
          </mxGeometry>
        </mxCell>
        <mxCell id="vLq7U2Vf2mniCk7zH5XL-164" value="&lt;div&gt;MiddleName&lt;/div&gt;" style="shape=partialRectangle;connectable=0;fillColor=none;top=0;left=0;bottom=0;right=0;align=left;spacingLeft=6;overflow=hidden;whiteSpace=wrap;html=1;fontStyle=0" vertex="1" parent="vLq7U2Vf2mniCk7zH5XL-162">
          <mxGeometry x="30" width="150" height="30" as="geometry">
            <mxRectangle width="150" height="30" as="alternateBounds" />
          </mxGeometry>
        </mxCell>
        <mxCell id="vLq7U2Vf2mniCk7zH5XL-165" value="" style="shape=tableRow;horizontal=0;startSize=0;swimlaneHead=0;swimlaneBody=0;fillColor=none;collapsible=0;dropTarget=0;points=[[0,0.5],[1,0.5]];portConstraint=eastwest;top=0;left=0;right=0;bottom=0;fontStyle=0" vertex="1" parent="vLq7U2Vf2mniCk7zH5XL-152">
          <mxGeometry y="150" width="180" height="30" as="geometry" />
        </mxCell>
        <mxCell id="vLq7U2Vf2mniCk7zH5XL-166" value="" style="shape=partialRectangle;connectable=0;fillColor=none;top=0;left=0;bottom=0;right=0;editable=1;overflow=hidden;whiteSpace=wrap;html=1;fontStyle=0" vertex="1" parent="vLq7U2Vf2mniCk7zH5XL-165">
          <mxGeometry width="30" height="30" as="geometry">
            <mxRectangle width="30" height="30" as="alternateBounds" />
          </mxGeometry>
        </mxCell>
        <mxCell id="vLq7U2Vf2mniCk7zH5XL-167" value="LastName" style="shape=partialRectangle;connectable=0;fillColor=none;top=0;left=0;bottom=0;right=0;align=left;spacingLeft=6;overflow=hidden;whiteSpace=wrap;html=1;fontStyle=0" vertex="1" parent="vLq7U2Vf2mniCk7zH5XL-165">
          <mxGeometry x="30" width="150" height="30" as="geometry">
            <mxRectangle width="150" height="30" as="alternateBounds" />
          </mxGeometry>
        </mxCell>
        <mxCell id="vLq7U2Vf2mniCk7zH5XL-168" style="edgeStyle=orthogonalEdgeStyle;rounded=0;orthogonalLoop=1;jettySize=auto;html=1;endArrow=none;startFill=0;" edge="1" parent="1" source="vLq7U2Vf2mniCk7zH5XL-110" target="vLq7U2Vf2mniCk7zH5XL-77">
          <mxGeometry relative="1" as="geometry">
            <Array as="points">
              <mxPoint x="-525" y="459" />
              <mxPoint x="-525" y="384" />
              <mxPoint x="-470" y="384" />
              <mxPoint x="-470" y="168" />
            </Array>
          </mxGeometry>
        </mxCell>
        <mxCell id="vLq7U2Vf2mniCk7zH5XL-169" style="edgeStyle=orthogonalEdgeStyle;rounded=0;orthogonalLoop=1;jettySize=auto;html=1;endArrow=none;startFill=0;" edge="1" parent="1" source="vLq7U2Vf2mniCk7zH5XL-156" target="vLq7U2Vf2mniCk7zH5XL-123">
          <mxGeometry relative="1" as="geometry">
            <Array as="points">
              <mxPoint x="-288" y="867" />
              <mxPoint x="-288" y="742" />
            </Array>
            <mxPoint x="-546" y="744" as="targetPoint" />
          </mxGeometry>
        </mxCell>
        <mxCell id="vLq7U2Vf2mniCk7zH5XL-170" style="edgeStyle=orthogonalEdgeStyle;rounded=0;orthogonalLoop=1;jettySize=auto;html=1;endArrow=none;startFill=0;" edge="1" parent="1" source="vLq7U2Vf2mniCk7zH5XL-39" target="vLq7U2Vf2mniCk7zH5XL-123">
          <mxGeometry relative="1" as="geometry">
            <Array as="points">
              <mxPoint x="-279" y="610" />
              <mxPoint x="-279" y="724" />
            </Array>
          </mxGeometry>
        </mxCell>
        <mxCell id="vLq7U2Vf2mniCk7zH5XL-171" value="&lt;div&gt;ServiceTypes&lt;/div&gt;" style="shape=table;startSize=30;container=1;collapsible=1;childLayout=tableLayout;fixedRows=1;rowLines=0;fontStyle=0;align=center;resizeLast=1;html=1;fillColor=#FFFFFF;" vertex="1" parent="1">
          <mxGeometry x="-519" y="604" width="180" height="88" as="geometry" />
        </mxCell>
        <mxCell id="vLq7U2Vf2mniCk7zH5XL-172" value="" style="shape=tableRow;horizontal=0;startSize=0;swimlaneHead=0;swimlaneBody=0;fillColor=none;collapsible=0;dropTarget=0;points=[[0,0.5],[1,0.5]];portConstraint=eastwest;top=0;left=0;right=0;bottom=1;fontStyle=0" vertex="1" parent="vLq7U2Vf2mniCk7zH5XL-171">
          <mxGeometry y="30" width="180" height="28" as="geometry" />
        </mxCell>
        <mxCell id="vLq7U2Vf2mniCk7zH5XL-173" value="PK" style="shape=partialRectangle;connectable=0;fillColor=none;top=0;left=0;bottom=0;right=0;fontStyle=0;overflow=hidden;whiteSpace=wrap;html=1;" vertex="1" parent="vLq7U2Vf2mniCk7zH5XL-172">
          <mxGeometry width="28.75" height="28" as="geometry">
            <mxRectangle width="28.75" height="28" as="alternateBounds" />
          </mxGeometry>
        </mxCell>
        <mxCell id="vLq7U2Vf2mniCk7zH5XL-174" value="&lt;div&gt;ServiceTypeID&lt;/div&gt;" style="shape=partialRectangle;connectable=0;fillColor=none;top=0;left=0;bottom=0;right=0;align=left;spacingLeft=6;fontStyle=0;overflow=hidden;whiteSpace=wrap;html=1;" vertex="1" parent="vLq7U2Vf2mniCk7zH5XL-172">
          <mxGeometry x="28.75" width="151.25" height="28" as="geometry">
            <mxRectangle width="151.25" height="28" as="alternateBounds" />
          </mxGeometry>
        </mxCell>
        <mxCell id="vLq7U2Vf2mniCk7zH5XL-175" value="" style="shape=tableRow;horizontal=0;startSize=0;swimlaneHead=0;swimlaneBody=0;fillColor=none;collapsible=0;dropTarget=0;points=[[0,0.5],[1,0.5]];portConstraint=eastwest;top=0;left=0;right=0;bottom=0;fontStyle=0" vertex="1" parent="vLq7U2Vf2mniCk7zH5XL-171">
          <mxGeometry y="58" width="180" height="30" as="geometry" />
        </mxCell>
        <mxCell id="vLq7U2Vf2mniCk7zH5XL-176" value="" style="shape=partialRectangle;connectable=0;fillColor=none;top=0;left=0;bottom=0;right=0;editable=1;overflow=hidden;whiteSpace=wrap;html=1;fontStyle=0" vertex="1" parent="vLq7U2Vf2mniCk7zH5XL-175">
          <mxGeometry width="28.75" height="30" as="geometry">
            <mxRectangle width="28.75" height="30" as="alternateBounds" />
          </mxGeometry>
        </mxCell>
        <mxCell id="vLq7U2Vf2mniCk7zH5XL-177" value="ServiceTypeName" style="shape=partialRectangle;connectable=0;fillColor=none;top=0;left=0;bottom=0;right=0;align=left;spacingLeft=6;overflow=hidden;whiteSpace=wrap;html=1;fontStyle=0" vertex="1" parent="vLq7U2Vf2mniCk7zH5XL-175">
          <mxGeometry x="28.75" width="151.25" height="30" as="geometry">
            <mxRectangle width="151.25" height="30" as="alternateBounds" />
          </mxGeometry>
        </mxCell>
        <mxCell id="vLq7U2Vf2mniCk7zH5XL-178" style="edgeStyle=orthogonalEdgeStyle;rounded=0;orthogonalLoop=1;jettySize=auto;html=1;startArrow=none;startFill=0;endArrow=none;" edge="1" parent="1" source="vLq7U2Vf2mniCk7zH5XL-67" target="vLq7U2Vf2mniCk7zH5XL-172">
          <mxGeometry relative="1" as="geometry" />
        </mxCell>
        <mxCell id="vLq7U2Vf2mniCk7zH5XL-179" style="edgeStyle=orthogonalEdgeStyle;rounded=0;orthogonalLoop=1;jettySize=auto;html=1;endArrow=none;startFill=0;" edge="1" parent="1" source="vLq7U2Vf2mniCk7zH5XL-36" target="vLq7U2Vf2mniCk7zH5XL-83">
          <mxGeometry relative="1" as="geometry">
            <Array as="points">
              <mxPoint x="-238" y="582" />
              <mxPoint x="-238" y="218" />
            </Array>
          </mxGeometry>
        </mxCell>
      </root>
    </mxGraphModel>
  </diagram>
  <diagram id="sDGIwEkDJhLk2vAbCmVf" name="Page-2">
    <mxGraphModel dx="1732" dy="996" grid="0" gridSize="10" guides="1" tooltips="1" connect="1" arrows="1" fold="1" page="1" pageScale="1" pageWidth="850" pageHeight="1100" math="0" shadow="0">
      <root>
        <mxCell id="0" />
        <mxCell id="1" parent="0" />
        <mxCell id="yg1q319LfR8nWrjF2FaG-1" value="&lt;div&gt;Patients&lt;/div&gt;" style="shape=table;startSize=30;container=1;collapsible=1;childLayout=tableLayout;fixedRows=1;rowLines=0;fontStyle=0;align=center;resizeLast=1;html=1;fillColor=#FFFFFF;" vertex="1" parent="1">
          <mxGeometry x="639" y="153" width="180" height="360" as="geometry" />
        </mxCell>
        <mxCell id="yg1q319LfR8nWrjF2FaG-2" value="" style="shape=tableRow;horizontal=0;startSize=0;swimlaneHead=0;swimlaneBody=0;fillColor=none;collapsible=0;dropTarget=0;points=[[0,0.5],[1,0.5]];portConstraint=eastwest;top=0;left=0;right=0;bottom=1;fontStyle=0" vertex="1" parent="yg1q319LfR8nWrjF2FaG-1">
          <mxGeometry y="30" width="180" height="30" as="geometry" />
        </mxCell>
        <mxCell id="yg1q319LfR8nWrjF2FaG-3" value="PK" style="shape=partialRectangle;connectable=0;fillColor=none;top=0;left=0;bottom=0;right=0;fontStyle=0;overflow=hidden;whiteSpace=wrap;html=1;" vertex="1" parent="yg1q319LfR8nWrjF2FaG-2">
          <mxGeometry width="30" height="30" as="geometry">
            <mxRectangle width="30" height="30" as="alternateBounds" />
          </mxGeometry>
        </mxCell>
        <mxCell id="yg1q319LfR8nWrjF2FaG-4" value="&lt;div&gt;PatiententID&lt;/div&gt;" style="shape=partialRectangle;connectable=0;fillColor=none;top=0;left=0;bottom=0;right=0;align=left;spacingLeft=6;fontStyle=0;overflow=hidden;whiteSpace=wrap;html=1;" vertex="1" parent="yg1q319LfR8nWrjF2FaG-2">
          <mxGeometry x="30" width="150" height="30" as="geometry">
            <mxRectangle width="150" height="30" as="alternateBounds" />
          </mxGeometry>
        </mxCell>
        <mxCell id="yg1q319LfR8nWrjF2FaG-5" value="" style="shape=tableRow;horizontal=0;startSize=0;swimlaneHead=0;swimlaneBody=0;fillColor=none;collapsible=0;dropTarget=0;points=[[0,0.5],[1,0.5]];portConstraint=eastwest;top=0;left=0;right=0;bottom=0;fontStyle=0" vertex="1" parent="yg1q319LfR8nWrjF2FaG-1">
          <mxGeometry y="60" width="180" height="30" as="geometry" />
        </mxCell>
        <mxCell id="yg1q319LfR8nWrjF2FaG-6" value="" style="shape=partialRectangle;connectable=0;fillColor=none;top=0;left=0;bottom=0;right=0;editable=1;overflow=hidden;whiteSpace=wrap;html=1;fontStyle=0" vertex="1" parent="yg1q319LfR8nWrjF2FaG-5">
          <mxGeometry width="30" height="30" as="geometry">
            <mxRectangle width="30" height="30" as="alternateBounds" />
          </mxGeometry>
        </mxCell>
        <mxCell id="yg1q319LfR8nWrjF2FaG-7" value="FirstName" style="shape=partialRectangle;connectable=0;fillColor=none;top=0;left=0;bottom=0;right=0;align=left;spacingLeft=6;overflow=hidden;whiteSpace=wrap;html=1;fontStyle=0" vertex="1" parent="yg1q319LfR8nWrjF2FaG-5">
          <mxGeometry x="30" width="150" height="30" as="geometry">
            <mxRectangle width="150" height="30" as="alternateBounds" />
          </mxGeometry>
        </mxCell>
        <mxCell id="yg1q319LfR8nWrjF2FaG-8" value="" style="shape=tableRow;horizontal=0;startSize=0;swimlaneHead=0;swimlaneBody=0;fillColor=none;collapsible=0;dropTarget=0;points=[[0,0.5],[1,0.5]];portConstraint=eastwest;top=0;left=0;right=0;bottom=0;fontStyle=0" vertex="1" parent="yg1q319LfR8nWrjF2FaG-1">
          <mxGeometry y="90" width="180" height="30" as="geometry" />
        </mxCell>
        <mxCell id="yg1q319LfR8nWrjF2FaG-9" value="" style="shape=partialRectangle;connectable=0;fillColor=none;top=0;left=0;bottom=0;right=0;editable=1;overflow=hidden;whiteSpace=wrap;html=1;fontStyle=0" vertex="1" parent="yg1q319LfR8nWrjF2FaG-8">
          <mxGeometry width="30" height="30" as="geometry">
            <mxRectangle width="30" height="30" as="alternateBounds" />
          </mxGeometry>
        </mxCell>
        <mxCell id="yg1q319LfR8nWrjF2FaG-10" value="MiddleName" style="shape=partialRectangle;connectable=0;fillColor=none;top=0;left=0;bottom=0;right=0;align=left;spacingLeft=6;overflow=hidden;whiteSpace=wrap;html=1;fontStyle=0" vertex="1" parent="yg1q319LfR8nWrjF2FaG-8">
          <mxGeometry x="30" width="150" height="30" as="geometry">
            <mxRectangle width="150" height="30" as="alternateBounds" />
          </mxGeometry>
        </mxCell>
        <mxCell id="yg1q319LfR8nWrjF2FaG-11" value="" style="shape=tableRow;horizontal=0;startSize=0;swimlaneHead=0;swimlaneBody=0;fillColor=none;collapsible=0;dropTarget=0;points=[[0,0.5],[1,0.5]];portConstraint=eastwest;top=0;left=0;right=0;bottom=0;fontStyle=0" vertex="1" parent="yg1q319LfR8nWrjF2FaG-1">
          <mxGeometry y="120" width="180" height="30" as="geometry" />
        </mxCell>
        <mxCell id="yg1q319LfR8nWrjF2FaG-12" value="" style="shape=partialRectangle;connectable=0;fillColor=none;top=0;left=0;bottom=0;right=0;editable=1;overflow=hidden;whiteSpace=wrap;html=1;fontStyle=0" vertex="1" parent="yg1q319LfR8nWrjF2FaG-11">
          <mxGeometry width="30" height="30" as="geometry">
            <mxRectangle width="30" height="30" as="alternateBounds" />
          </mxGeometry>
        </mxCell>
        <mxCell id="yg1q319LfR8nWrjF2FaG-13" value="LastName" style="shape=partialRectangle;connectable=0;fillColor=none;top=0;left=0;bottom=0;right=0;align=left;spacingLeft=6;overflow=hidden;whiteSpace=wrap;html=1;fontStyle=0" vertex="1" parent="yg1q319LfR8nWrjF2FaG-11">
          <mxGeometry x="30" width="150" height="30" as="geometry">
            <mxRectangle width="150" height="30" as="alternateBounds" />
          </mxGeometry>
        </mxCell>
        <mxCell id="yg1q319LfR8nWrjF2FaG-14" style="shape=tableRow;horizontal=0;startSize=0;swimlaneHead=0;swimlaneBody=0;fillColor=none;collapsible=0;dropTarget=0;points=[[0,0.5],[1,0.5]];portConstraint=eastwest;top=0;left=0;right=0;bottom=0;fontStyle=0" vertex="1" parent="yg1q319LfR8nWrjF2FaG-1">
          <mxGeometry y="150" width="180" height="30" as="geometry" />
        </mxCell>
        <mxCell id="yg1q319LfR8nWrjF2FaG-15" style="shape=partialRectangle;connectable=0;fillColor=none;top=0;left=0;bottom=0;right=0;editable=1;overflow=hidden;whiteSpace=wrap;html=1;fontStyle=0" vertex="1" parent="yg1q319LfR8nWrjF2FaG-14">
          <mxGeometry width="30" height="30" as="geometry">
            <mxRectangle width="30" height="30" as="alternateBounds" />
          </mxGeometry>
        </mxCell>
        <mxCell id="yg1q319LfR8nWrjF2FaG-16" value="DoB" style="shape=partialRectangle;connectable=0;fillColor=none;top=0;left=0;bottom=0;right=0;align=left;spacingLeft=6;overflow=hidden;whiteSpace=wrap;html=1;fontStyle=0" vertex="1" parent="yg1q319LfR8nWrjF2FaG-14">
          <mxGeometry x="30" width="150" height="30" as="geometry">
            <mxRectangle width="150" height="30" as="alternateBounds" />
          </mxGeometry>
        </mxCell>
        <mxCell id="yg1q319LfR8nWrjF2FaG-17" style="shape=tableRow;horizontal=0;startSize=0;swimlaneHead=0;swimlaneBody=0;fillColor=none;collapsible=0;dropTarget=0;points=[[0,0.5],[1,0.5]];portConstraint=eastwest;top=0;left=0;right=0;bottom=0;fontStyle=0" vertex="1" parent="yg1q319LfR8nWrjF2FaG-1">
          <mxGeometry y="180" width="180" height="30" as="geometry" />
        </mxCell>
        <mxCell id="yg1q319LfR8nWrjF2FaG-18" style="shape=partialRectangle;connectable=0;fillColor=none;top=0;left=0;bottom=0;right=0;editable=1;overflow=hidden;whiteSpace=wrap;html=1;fontStyle=0" vertex="1" parent="yg1q319LfR8nWrjF2FaG-17">
          <mxGeometry width="30" height="30" as="geometry">
            <mxRectangle width="30" height="30" as="alternateBounds" />
          </mxGeometry>
        </mxCell>
        <mxCell id="yg1q319LfR8nWrjF2FaG-19" value="Sex" style="shape=partialRectangle;connectable=0;fillColor=none;top=0;left=0;bottom=0;right=0;align=left;spacingLeft=6;overflow=hidden;whiteSpace=wrap;html=1;fontStyle=0" vertex="1" parent="yg1q319LfR8nWrjF2FaG-17">
          <mxGeometry x="30" width="150" height="30" as="geometry">
            <mxRectangle width="150" height="30" as="alternateBounds" />
          </mxGeometry>
        </mxCell>
        <mxCell id="yg1q319LfR8nWrjF2FaG-20" style="shape=tableRow;horizontal=0;startSize=0;swimlaneHead=0;swimlaneBody=0;fillColor=none;collapsible=0;dropTarget=0;points=[[0,0.5],[1,0.5]];portConstraint=eastwest;top=0;left=0;right=0;bottom=0;fontStyle=0" vertex="1" parent="yg1q319LfR8nWrjF2FaG-1">
          <mxGeometry y="210" width="180" height="30" as="geometry" />
        </mxCell>
        <mxCell id="yg1q319LfR8nWrjF2FaG-21" style="shape=partialRectangle;connectable=0;fillColor=none;top=0;left=0;bottom=0;right=0;editable=1;overflow=hidden;whiteSpace=wrap;html=1;fontStyle=0" vertex="1" parent="yg1q319LfR8nWrjF2FaG-20">
          <mxGeometry width="30" height="30" as="geometry">
            <mxRectangle width="30" height="30" as="alternateBounds" />
          </mxGeometry>
        </mxCell>
        <mxCell id="yg1q319LfR8nWrjF2FaG-22" value="&lt;div&gt;ContactNumber&lt;/div&gt;" style="shape=partialRectangle;connectable=0;fillColor=none;top=0;left=0;bottom=0;right=0;align=left;spacingLeft=6;overflow=hidden;whiteSpace=wrap;html=1;fontStyle=0" vertex="1" parent="yg1q319LfR8nWrjF2FaG-20">
          <mxGeometry x="30" width="150" height="30" as="geometry">
            <mxRectangle width="150" height="30" as="alternateBounds" />
          </mxGeometry>
        </mxCell>
        <mxCell id="yg1q319LfR8nWrjF2FaG-23" style="shape=tableRow;horizontal=0;startSize=0;swimlaneHead=0;swimlaneBody=0;fillColor=none;collapsible=0;dropTarget=0;points=[[0,0.5],[1,0.5]];portConstraint=eastwest;top=0;left=0;right=0;bottom=0;fontStyle=0" vertex="1" parent="yg1q319LfR8nWrjF2FaG-1">
          <mxGeometry y="240" width="180" height="30" as="geometry" />
        </mxCell>
        <mxCell id="yg1q319LfR8nWrjF2FaG-24" style="shape=partialRectangle;connectable=0;fillColor=none;top=0;left=0;bottom=0;right=0;editable=1;overflow=hidden;whiteSpace=wrap;html=1;fontStyle=0" vertex="1" parent="yg1q319LfR8nWrjF2FaG-23">
          <mxGeometry width="30" height="30" as="geometry">
            <mxRectangle width="30" height="30" as="alternateBounds" />
          </mxGeometry>
        </mxCell>
        <mxCell id="yg1q319LfR8nWrjF2FaG-25" value="&lt;div&gt;AltContactNumber&lt;/div&gt;" style="shape=partialRectangle;connectable=0;fillColor=none;top=0;left=0;bottom=0;right=0;align=left;spacingLeft=6;overflow=hidden;whiteSpace=wrap;html=1;fontStyle=0" vertex="1" parent="yg1q319LfR8nWrjF2FaG-23">
          <mxGeometry x="30" width="150" height="30" as="geometry">
            <mxRectangle width="150" height="30" as="alternateBounds" />
          </mxGeometry>
        </mxCell>
        <mxCell id="yg1q319LfR8nWrjF2FaG-26" style="shape=tableRow;horizontal=0;startSize=0;swimlaneHead=0;swimlaneBody=0;fillColor=none;collapsible=0;dropTarget=0;points=[[0,0.5],[1,0.5]];portConstraint=eastwest;top=0;left=0;right=0;bottom=0;fontStyle=0" vertex="1" parent="yg1q319LfR8nWrjF2FaG-1">
          <mxGeometry y="270" width="180" height="30" as="geometry" />
        </mxCell>
        <mxCell id="yg1q319LfR8nWrjF2FaG-27" style="shape=partialRectangle;connectable=0;fillColor=none;top=0;left=0;bottom=0;right=0;editable=1;overflow=hidden;whiteSpace=wrap;html=1;fontStyle=0" vertex="1" parent="yg1q319LfR8nWrjF2FaG-26">
          <mxGeometry width="30" height="30" as="geometry">
            <mxRectangle width="30" height="30" as="alternateBounds" />
          </mxGeometry>
        </mxCell>
        <mxCell id="yg1q319LfR8nWrjF2FaG-28" value="&lt;div&gt;EmailAddress&lt;/div&gt;" style="shape=partialRectangle;connectable=0;fillColor=none;top=0;left=0;bottom=0;right=0;align=left;spacingLeft=6;overflow=hidden;whiteSpace=wrap;html=1;fontStyle=0" vertex="1" parent="yg1q319LfR8nWrjF2FaG-26">
          <mxGeometry x="30" width="150" height="30" as="geometry">
            <mxRectangle width="150" height="30" as="alternateBounds" />
          </mxGeometry>
        </mxCell>
        <mxCell id="yg1q319LfR8nWrjF2FaG-29" style="shape=tableRow;horizontal=0;startSize=0;swimlaneHead=0;swimlaneBody=0;fillColor=none;collapsible=0;dropTarget=0;points=[[0,0.5],[1,0.5]];portConstraint=eastwest;top=0;left=0;right=0;bottom=0;fontStyle=0" vertex="1" parent="yg1q319LfR8nWrjF2FaG-1">
          <mxGeometry y="300" width="180" height="30" as="geometry" />
        </mxCell>
        <mxCell id="yg1q319LfR8nWrjF2FaG-30" style="shape=partialRectangle;connectable=0;fillColor=none;top=0;left=0;bottom=0;right=0;editable=1;overflow=hidden;whiteSpace=wrap;html=1;fontStyle=0" vertex="1" parent="yg1q319LfR8nWrjF2FaG-29">
          <mxGeometry width="30" height="30" as="geometry">
            <mxRectangle width="30" height="30" as="alternateBounds" />
          </mxGeometry>
        </mxCell>
        <mxCell id="yg1q319LfR8nWrjF2FaG-31" value="Address" style="shape=partialRectangle;connectable=0;fillColor=none;top=0;left=0;bottom=0;right=0;align=left;spacingLeft=6;overflow=hidden;whiteSpace=wrap;html=1;fontStyle=0" vertex="1" parent="yg1q319LfR8nWrjF2FaG-29">
          <mxGeometry x="30" width="150" height="30" as="geometry">
            <mxRectangle width="150" height="30" as="alternateBounds" />
          </mxGeometry>
        </mxCell>
        <mxCell id="yg1q319LfR8nWrjF2FaG-32" style="shape=tableRow;horizontal=0;startSize=0;swimlaneHead=0;swimlaneBody=0;fillColor=none;collapsible=0;dropTarget=0;points=[[0,0.5],[1,0.5]];portConstraint=eastwest;top=0;left=0;right=0;bottom=0;fontStyle=0" vertex="1" parent="yg1q319LfR8nWrjF2FaG-1">
          <mxGeometry y="330" width="180" height="30" as="geometry" />
        </mxCell>
        <mxCell id="yg1q319LfR8nWrjF2FaG-33" style="shape=partialRectangle;connectable=0;fillColor=none;top=0;left=0;bottom=0;right=0;editable=1;overflow=hidden;whiteSpace=wrap;html=1;fontStyle=0" vertex="1" parent="yg1q319LfR8nWrjF2FaG-32">
          <mxGeometry width="30" height="30" as="geometry">
            <mxRectangle width="30" height="30" as="alternateBounds" />
          </mxGeometry>
        </mxCell>
        <mxCell id="yg1q319LfR8nWrjF2FaG-34" value="Status" style="shape=partialRectangle;connectable=0;fillColor=none;top=0;left=0;bottom=0;right=0;align=left;spacingLeft=6;overflow=hidden;whiteSpace=wrap;html=1;fontStyle=0" vertex="1" parent="yg1q319LfR8nWrjF2FaG-32">
          <mxGeometry x="30" width="150" height="30" as="geometry">
            <mxRectangle width="150" height="30" as="alternateBounds" />
          </mxGeometry>
        </mxCell>
        <mxCell id="yg1q319LfR8nWrjF2FaG-35" value="&lt;div&gt;Doctors&lt;/div&gt;" style="shape=table;startSize=30;container=1;collapsible=1;childLayout=tableLayout;fixedRows=1;rowLines=0;fontStyle=0;align=center;resizeLast=1;html=1;fillColor=#FFFFFF;" vertex="1" parent="1">
          <mxGeometry x="608" y="572" width="180" height="300" as="geometry" />
        </mxCell>
        <mxCell id="yg1q319LfR8nWrjF2FaG-36" value="" style="shape=tableRow;horizontal=0;startSize=0;swimlaneHead=0;swimlaneBody=0;fillColor=none;collapsible=0;dropTarget=0;points=[[0,0.5],[1,0.5]];portConstraint=eastwest;top=0;left=0;right=0;bottom=1;fontStyle=0" vertex="1" parent="yg1q319LfR8nWrjF2FaG-35">
          <mxGeometry y="30" width="180" height="30" as="geometry" />
        </mxCell>
        <mxCell id="yg1q319LfR8nWrjF2FaG-37" value="PK" style="shape=partialRectangle;connectable=0;fillColor=none;top=0;left=0;bottom=0;right=0;fontStyle=0;overflow=hidden;whiteSpace=wrap;html=1;" vertex="1" parent="yg1q319LfR8nWrjF2FaG-36">
          <mxGeometry width="31.458333333333627" height="30" as="geometry">
            <mxRectangle width="31.458333333333627" height="30" as="alternateBounds" />
          </mxGeometry>
        </mxCell>
        <mxCell id="yg1q319LfR8nWrjF2FaG-38" value="&lt;div&gt;DoctorID&lt;/div&gt;" style="shape=partialRectangle;connectable=0;fillColor=none;top=0;left=0;bottom=0;right=0;align=left;spacingLeft=6;fontStyle=0;overflow=hidden;whiteSpace=wrap;html=1;" vertex="1" parent="yg1q319LfR8nWrjF2FaG-36">
          <mxGeometry x="31.458333333333627" width="148.54166666666637" height="30" as="geometry">
            <mxRectangle width="148.54166666666637" height="30" as="alternateBounds" />
          </mxGeometry>
        </mxCell>
        <mxCell id="yg1q319LfR8nWrjF2FaG-39" style="shape=tableRow;horizontal=0;startSize=0;swimlaneHead=0;swimlaneBody=0;fillColor=none;collapsible=0;dropTarget=0;points=[[0,0.5],[1,0.5]];portConstraint=eastwest;top=0;left=0;right=0;bottom=1;fontStyle=0" vertex="1" parent="yg1q319LfR8nWrjF2FaG-35">
          <mxGeometry y="60" width="180" height="30" as="geometry" />
        </mxCell>
        <mxCell id="yg1q319LfR8nWrjF2FaG-40" value="FK" style="shape=partialRectangle;connectable=0;fillColor=none;top=0;left=0;bottom=0;right=0;fontStyle=0;overflow=hidden;whiteSpace=wrap;html=1;" vertex="1" parent="yg1q319LfR8nWrjF2FaG-39">
          <mxGeometry width="31.458333333333627" height="30" as="geometry">
            <mxRectangle width="31.458333333333627" height="30" as="alternateBounds" />
          </mxGeometry>
        </mxCell>
        <mxCell id="yg1q319LfR8nWrjF2FaG-41" value="UserID" style="shape=partialRectangle;connectable=0;fillColor=none;top=0;left=0;bottom=0;right=0;align=left;spacingLeft=6;fontStyle=0;overflow=hidden;whiteSpace=wrap;html=1;" vertex="1" parent="yg1q319LfR8nWrjF2FaG-39">
          <mxGeometry x="31.458333333333627" width="148.54166666666637" height="30" as="geometry">
            <mxRectangle width="148.54166666666637" height="30" as="alternateBounds" />
          </mxGeometry>
        </mxCell>
        <mxCell id="yg1q319LfR8nWrjF2FaG-42" value="" style="shape=tableRow;horizontal=0;startSize=0;swimlaneHead=0;swimlaneBody=0;fillColor=none;collapsible=0;dropTarget=0;points=[[0,0.5],[1,0.5]];portConstraint=eastwest;top=0;left=0;right=0;bottom=0;fontStyle=0" vertex="1" parent="yg1q319LfR8nWrjF2FaG-35">
          <mxGeometry y="90" width="180" height="30" as="geometry" />
        </mxCell>
        <mxCell id="yg1q319LfR8nWrjF2FaG-43" value="" style="shape=partialRectangle;connectable=0;fillColor=none;top=0;left=0;bottom=0;right=0;editable=1;overflow=hidden;whiteSpace=wrap;html=1;fontStyle=0" vertex="1" parent="yg1q319LfR8nWrjF2FaG-42">
          <mxGeometry width="31.458333333333627" height="30" as="geometry">
            <mxRectangle width="31.458333333333627" height="30" as="alternateBounds" />
          </mxGeometry>
        </mxCell>
        <mxCell id="yg1q319LfR8nWrjF2FaG-44" value="FirstName" style="shape=partialRectangle;connectable=0;fillColor=none;top=0;left=0;bottom=0;right=0;align=left;spacingLeft=6;overflow=hidden;whiteSpace=wrap;html=1;fontStyle=0" vertex="1" parent="yg1q319LfR8nWrjF2FaG-42">
          <mxGeometry x="31.458333333333627" width="148.54166666666637" height="30" as="geometry">
            <mxRectangle width="148.54166666666637" height="30" as="alternateBounds" />
          </mxGeometry>
        </mxCell>
        <mxCell id="yg1q319LfR8nWrjF2FaG-45" value="" style="shape=tableRow;horizontal=0;startSize=0;swimlaneHead=0;swimlaneBody=0;fillColor=none;collapsible=0;dropTarget=0;points=[[0,0.5],[1,0.5]];portConstraint=eastwest;top=0;left=0;right=0;bottom=0;fontStyle=0" vertex="1" parent="yg1q319LfR8nWrjF2FaG-35">
          <mxGeometry y="120" width="180" height="30" as="geometry" />
        </mxCell>
        <mxCell id="yg1q319LfR8nWrjF2FaG-46" value="" style="shape=partialRectangle;connectable=0;fillColor=none;top=0;left=0;bottom=0;right=0;editable=1;overflow=hidden;whiteSpace=wrap;html=1;fontStyle=0" vertex="1" parent="yg1q319LfR8nWrjF2FaG-45">
          <mxGeometry width="31.458333333333627" height="30" as="geometry">
            <mxRectangle width="31.458333333333627" height="30" as="alternateBounds" />
          </mxGeometry>
        </mxCell>
        <mxCell id="yg1q319LfR8nWrjF2FaG-47" value="MiddleName" style="shape=partialRectangle;connectable=0;fillColor=none;top=0;left=0;bottom=0;right=0;align=left;spacingLeft=6;overflow=hidden;whiteSpace=wrap;html=1;fontStyle=0" vertex="1" parent="yg1q319LfR8nWrjF2FaG-45">
          <mxGeometry x="31.458333333333627" width="148.54166666666637" height="30" as="geometry">
            <mxRectangle width="148.54166666666637" height="30" as="alternateBounds" />
          </mxGeometry>
        </mxCell>
        <mxCell id="yg1q319LfR8nWrjF2FaG-48" value="" style="shape=tableRow;horizontal=0;startSize=0;swimlaneHead=0;swimlaneBody=0;fillColor=none;collapsible=0;dropTarget=0;points=[[0,0.5],[1,0.5]];portConstraint=eastwest;top=0;left=0;right=0;bottom=0;fontStyle=0" vertex="1" parent="yg1q319LfR8nWrjF2FaG-35">
          <mxGeometry y="150" width="180" height="30" as="geometry" />
        </mxCell>
        <mxCell id="yg1q319LfR8nWrjF2FaG-49" value="" style="shape=partialRectangle;connectable=0;fillColor=none;top=0;left=0;bottom=0;right=0;editable=1;overflow=hidden;whiteSpace=wrap;html=1;fontStyle=0" vertex="1" parent="yg1q319LfR8nWrjF2FaG-48">
          <mxGeometry width="31.458333333333627" height="30" as="geometry">
            <mxRectangle width="31.458333333333627" height="30" as="alternateBounds" />
          </mxGeometry>
        </mxCell>
        <mxCell id="yg1q319LfR8nWrjF2FaG-50" value="LastName" style="shape=partialRectangle;connectable=0;fillColor=none;top=0;left=0;bottom=0;right=0;align=left;spacingLeft=6;overflow=hidden;whiteSpace=wrap;html=1;fontStyle=0" vertex="1" parent="yg1q319LfR8nWrjF2FaG-48">
          <mxGeometry x="31.458333333333627" width="148.54166666666637" height="30" as="geometry">
            <mxRectangle width="148.54166666666637" height="30" as="alternateBounds" />
          </mxGeometry>
        </mxCell>
        <mxCell id="yg1q319LfR8nWrjF2FaG-51" style="shape=tableRow;horizontal=0;startSize=0;swimlaneHead=0;swimlaneBody=0;fillColor=none;collapsible=0;dropTarget=0;points=[[0,0.5],[1,0.5]];portConstraint=eastwest;top=0;left=0;right=0;bottom=0;fontStyle=0" vertex="1" parent="yg1q319LfR8nWrjF2FaG-35">
          <mxGeometry y="180" width="180" height="30" as="geometry" />
        </mxCell>
        <mxCell id="yg1q319LfR8nWrjF2FaG-52" style="shape=partialRectangle;connectable=0;fillColor=none;top=0;left=0;bottom=0;right=0;editable=1;overflow=hidden;whiteSpace=wrap;html=1;fontStyle=0" vertex="1" parent="yg1q319LfR8nWrjF2FaG-51">
          <mxGeometry width="31.458333333333627" height="30" as="geometry">
            <mxRectangle width="31.458333333333627" height="30" as="alternateBounds" />
          </mxGeometry>
        </mxCell>
        <mxCell id="yg1q319LfR8nWrjF2FaG-53" value="HireDate" style="shape=partialRectangle;connectable=0;fillColor=none;top=0;left=0;bottom=0;right=0;align=left;spacingLeft=6;overflow=hidden;whiteSpace=wrap;html=1;fontStyle=0" vertex="1" parent="yg1q319LfR8nWrjF2FaG-51">
          <mxGeometry x="31.458333333333627" width="148.54166666666637" height="30" as="geometry">
            <mxRectangle width="148.54166666666637" height="30" as="alternateBounds" />
          </mxGeometry>
        </mxCell>
        <mxCell id="yg1q319LfR8nWrjF2FaG-54" style="shape=tableRow;horizontal=0;startSize=0;swimlaneHead=0;swimlaneBody=0;fillColor=none;collapsible=0;dropTarget=0;points=[[0,0.5],[1,0.5]];portConstraint=eastwest;top=0;left=0;right=0;bottom=0;fontStyle=0" vertex="1" parent="yg1q319LfR8nWrjF2FaG-35">
          <mxGeometry y="210" width="180" height="30" as="geometry" />
        </mxCell>
        <mxCell id="yg1q319LfR8nWrjF2FaG-55" style="shape=partialRectangle;connectable=0;fillColor=none;top=0;left=0;bottom=0;right=0;editable=1;overflow=hidden;whiteSpace=wrap;html=1;fontStyle=0" vertex="1" parent="yg1q319LfR8nWrjF2FaG-54">
          <mxGeometry width="31.458333333333627" height="30" as="geometry">
            <mxRectangle width="31.458333333333627" height="30" as="alternateBounds" />
          </mxGeometry>
        </mxCell>
        <mxCell id="yg1q319LfR8nWrjF2FaG-56" value="LicenseNumber" style="shape=partialRectangle;connectable=0;fillColor=none;top=0;left=0;bottom=0;right=0;align=left;spacingLeft=6;overflow=hidden;whiteSpace=wrap;html=1;fontStyle=0" vertex="1" parent="yg1q319LfR8nWrjF2FaG-54">
          <mxGeometry x="31.458333333333627" width="148.54166666666637" height="30" as="geometry">
            <mxRectangle width="148.54166666666637" height="30" as="alternateBounds" />
          </mxGeometry>
        </mxCell>
        <mxCell id="yg1q319LfR8nWrjF2FaG-57" style="shape=tableRow;horizontal=0;startSize=0;swimlaneHead=0;swimlaneBody=0;fillColor=none;collapsible=0;dropTarget=0;points=[[0,0.5],[1,0.5]];portConstraint=eastwest;top=0;left=0;right=0;bottom=0;fontStyle=0" vertex="1" parent="yg1q319LfR8nWrjF2FaG-35">
          <mxGeometry y="240" width="180" height="30" as="geometry" />
        </mxCell>
        <mxCell id="yg1q319LfR8nWrjF2FaG-58" style="shape=partialRectangle;connectable=0;fillColor=none;top=0;left=0;bottom=0;right=0;editable=1;overflow=hidden;whiteSpace=wrap;html=1;fontStyle=0" vertex="1" parent="yg1q319LfR8nWrjF2FaG-57">
          <mxGeometry width="31.458333333333627" height="30" as="geometry">
            <mxRectangle width="31.458333333333627" height="30" as="alternateBounds" />
          </mxGeometry>
        </mxCell>
        <mxCell id="yg1q319LfR8nWrjF2FaG-59" value="Schedule" style="shape=partialRectangle;connectable=0;fillColor=none;top=0;left=0;bottom=0;right=0;align=left;spacingLeft=6;overflow=hidden;whiteSpace=wrap;html=1;fontStyle=0" vertex="1" parent="yg1q319LfR8nWrjF2FaG-57">
          <mxGeometry x="31.458333333333627" width="148.54166666666637" height="30" as="geometry">
            <mxRectangle width="148.54166666666637" height="30" as="alternateBounds" />
          </mxGeometry>
        </mxCell>
        <mxCell id="yg1q319LfR8nWrjF2FaG-60" style="shape=tableRow;horizontal=0;startSize=0;swimlaneHead=0;swimlaneBody=0;fillColor=none;collapsible=0;dropTarget=0;points=[[0,0.5],[1,0.5]];portConstraint=eastwest;top=0;left=0;right=0;bottom=0;fontStyle=0" vertex="1" parent="yg1q319LfR8nWrjF2FaG-35">
          <mxGeometry y="270" width="180" height="30" as="geometry" />
        </mxCell>
        <mxCell id="yg1q319LfR8nWrjF2FaG-61" style="shape=partialRectangle;connectable=0;fillColor=none;top=0;left=0;bottom=0;right=0;editable=1;overflow=hidden;whiteSpace=wrap;html=1;fontStyle=0" vertex="1" parent="yg1q319LfR8nWrjF2FaG-60">
          <mxGeometry width="31.458333333333627" height="30" as="geometry">
            <mxRectangle width="31.458333333333627" height="30" as="alternateBounds" />
          </mxGeometry>
        </mxCell>
        <mxCell id="yg1q319LfR8nWrjF2FaG-62" value="&lt;div&gt;AvailabilitStatus&lt;/div&gt;" style="shape=partialRectangle;connectable=0;fillColor=none;top=0;left=0;bottom=0;right=0;align=left;spacingLeft=6;overflow=hidden;whiteSpace=wrap;html=1;fontStyle=0" vertex="1" parent="yg1q319LfR8nWrjF2FaG-60">
          <mxGeometry x="31.458333333333627" width="148.54166666666637" height="30" as="geometry">
            <mxRectangle width="148.54166666666637" height="30" as="alternateBounds" />
          </mxGeometry>
        </mxCell>
        <mxCell id="yg1q319LfR8nWrjF2FaG-63" value="&lt;div&gt;Services&lt;/div&gt;" style="shape=table;startSize=30;container=1;collapsible=1;childLayout=tableLayout;fixedRows=1;rowLines=0;fontStyle=0;align=center;resizeLast=1;html=1;fillColor=#FFFFFF;" vertex="1" parent="1">
          <mxGeometry x="47.34000000000003" y="457" width="180" height="178" as="geometry" />
        </mxCell>
        <mxCell id="yg1q319LfR8nWrjF2FaG-64" value="" style="shape=tableRow;horizontal=0;startSize=0;swimlaneHead=0;swimlaneBody=0;fillColor=none;collapsible=0;dropTarget=0;points=[[0,0.5],[1,0.5]];portConstraint=eastwest;top=0;left=0;right=0;bottom=1;fontStyle=0" vertex="1" parent="yg1q319LfR8nWrjF2FaG-63">
          <mxGeometry y="30" width="180" height="28" as="geometry" />
        </mxCell>
        <mxCell id="yg1q319LfR8nWrjF2FaG-65" value="PK" style="shape=partialRectangle;connectable=0;fillColor=none;top=0;left=0;bottom=0;right=0;fontStyle=0;overflow=hidden;whiteSpace=wrap;html=1;" vertex="1" parent="yg1q319LfR8nWrjF2FaG-64">
          <mxGeometry width="28.75" height="28" as="geometry">
            <mxRectangle width="28.75" height="28" as="alternateBounds" />
          </mxGeometry>
        </mxCell>
        <mxCell id="yg1q319LfR8nWrjF2FaG-66" value="&lt;div&gt;ServiceID&lt;/div&gt;" style="shape=partialRectangle;connectable=0;fillColor=none;top=0;left=0;bottom=0;right=0;align=left;spacingLeft=6;fontStyle=0;overflow=hidden;whiteSpace=wrap;html=1;" vertex="1" parent="yg1q319LfR8nWrjF2FaG-64">
          <mxGeometry x="28.75" width="151.25" height="28" as="geometry">
            <mxRectangle width="151.25" height="28" as="alternateBounds" />
          </mxGeometry>
        </mxCell>
        <mxCell id="yg1q319LfR8nWrjF2FaG-67" value="" style="shape=tableRow;horizontal=0;startSize=0;swimlaneHead=0;swimlaneBody=0;fillColor=none;collapsible=0;dropTarget=0;points=[[0,0.5],[1,0.5]];portConstraint=eastwest;top=0;left=0;right=0;bottom=0;fontStyle=0" vertex="1" parent="yg1q319LfR8nWrjF2FaG-63">
          <mxGeometry y="58" width="180" height="30" as="geometry" />
        </mxCell>
        <mxCell id="yg1q319LfR8nWrjF2FaG-68" value="" style="shape=partialRectangle;connectable=0;fillColor=none;top=0;left=0;bottom=0;right=0;editable=1;overflow=hidden;whiteSpace=wrap;html=1;fontStyle=0" vertex="1" parent="yg1q319LfR8nWrjF2FaG-67">
          <mxGeometry width="28.75" height="30" as="geometry">
            <mxRectangle width="28.75" height="30" as="alternateBounds" />
          </mxGeometry>
        </mxCell>
        <mxCell id="yg1q319LfR8nWrjF2FaG-69" value="ServiceName" style="shape=partialRectangle;connectable=0;fillColor=none;top=0;left=0;bottom=0;right=0;align=left;spacingLeft=6;overflow=hidden;whiteSpace=wrap;html=1;fontStyle=0" vertex="1" parent="yg1q319LfR8nWrjF2FaG-67">
          <mxGeometry x="28.75" width="151.25" height="30" as="geometry">
            <mxRectangle width="151.25" height="30" as="alternateBounds" />
          </mxGeometry>
        </mxCell>
        <mxCell id="yg1q319LfR8nWrjF2FaG-70" style="shape=tableRow;horizontal=0;startSize=0;swimlaneHead=0;swimlaneBody=0;fillColor=none;collapsible=0;dropTarget=0;points=[[0,0.5],[1,0.5]];portConstraint=eastwest;top=0;left=0;right=0;bottom=0;fontStyle=0" vertex="1" parent="yg1q319LfR8nWrjF2FaG-63">
          <mxGeometry y="88" width="180" height="30" as="geometry" />
        </mxCell>
        <mxCell id="yg1q319LfR8nWrjF2FaG-71" value="FK" style="shape=partialRectangle;connectable=0;fillColor=none;top=0;left=0;bottom=0;right=0;editable=1;overflow=hidden;whiteSpace=wrap;html=1;fontStyle=0" vertex="1" parent="yg1q319LfR8nWrjF2FaG-70">
          <mxGeometry width="28.75" height="30" as="geometry">
            <mxRectangle width="28.75" height="30" as="alternateBounds" />
          </mxGeometry>
        </mxCell>
        <mxCell id="yg1q319LfR8nWrjF2FaG-72" value="ServiceTypeID" style="shape=partialRectangle;connectable=0;fillColor=none;top=0;left=0;bottom=0;right=0;align=left;spacingLeft=6;overflow=hidden;whiteSpace=wrap;html=1;fontStyle=0" vertex="1" parent="yg1q319LfR8nWrjF2FaG-70">
          <mxGeometry x="28.75" width="151.25" height="30" as="geometry">
            <mxRectangle width="151.25" height="30" as="alternateBounds" />
          </mxGeometry>
        </mxCell>
        <mxCell id="yg1q319LfR8nWrjF2FaG-73" style="shape=tableRow;horizontal=0;startSize=0;swimlaneHead=0;swimlaneBody=0;fillColor=none;collapsible=0;dropTarget=0;points=[[0,0.5],[1,0.5]];portConstraint=eastwest;top=0;left=0;right=0;bottom=0;fontStyle=0" vertex="1" parent="yg1q319LfR8nWrjF2FaG-63">
          <mxGeometry y="118" width="180" height="30" as="geometry" />
        </mxCell>
        <mxCell id="yg1q319LfR8nWrjF2FaG-74" style="shape=partialRectangle;connectable=0;fillColor=none;top=0;left=0;bottom=0;right=0;editable=1;overflow=hidden;whiteSpace=wrap;html=1;fontStyle=0" vertex="1" parent="yg1q319LfR8nWrjF2FaG-73">
          <mxGeometry width="28.75" height="30" as="geometry">
            <mxRectangle width="28.75" height="30" as="alternateBounds" />
          </mxGeometry>
        </mxCell>
        <mxCell id="yg1q319LfR8nWrjF2FaG-75" value="ServiceDesc" style="shape=partialRectangle;connectable=0;fillColor=none;top=0;left=0;bottom=0;right=0;align=left;spacingLeft=6;overflow=hidden;whiteSpace=wrap;html=1;fontStyle=0" vertex="1" parent="yg1q319LfR8nWrjF2FaG-73">
          <mxGeometry x="28.75" width="151.25" height="30" as="geometry">
            <mxRectangle width="151.25" height="30" as="alternateBounds" />
          </mxGeometry>
        </mxCell>
        <mxCell id="yg1q319LfR8nWrjF2FaG-76" style="shape=tableRow;horizontal=0;startSize=0;swimlaneHead=0;swimlaneBody=0;fillColor=none;collapsible=0;dropTarget=0;points=[[0,0.5],[1,0.5]];portConstraint=eastwest;top=0;left=0;right=0;bottom=0;fontStyle=0" vertex="1" parent="yg1q319LfR8nWrjF2FaG-63">
          <mxGeometry y="148" width="180" height="30" as="geometry" />
        </mxCell>
        <mxCell id="yg1q319LfR8nWrjF2FaG-77" style="shape=partialRectangle;connectable=0;fillColor=none;top=0;left=0;bottom=0;right=0;editable=1;overflow=hidden;whiteSpace=wrap;html=1;fontStyle=0" vertex="1" parent="yg1q319LfR8nWrjF2FaG-76">
          <mxGeometry width="28.75" height="30" as="geometry">
            <mxRectangle width="28.75" height="30" as="alternateBounds" />
          </mxGeometry>
        </mxCell>
        <mxCell id="yg1q319LfR8nWrjF2FaG-78" value="Price" style="shape=partialRectangle;connectable=0;fillColor=none;top=0;left=0;bottom=0;right=0;align=left;spacingLeft=6;overflow=hidden;whiteSpace=wrap;html=1;fontStyle=0" vertex="1" parent="yg1q319LfR8nWrjF2FaG-76">
          <mxGeometry x="28.75" width="151.25" height="30" as="geometry">
            <mxRectangle width="151.25" height="30" as="alternateBounds" />
          </mxGeometry>
        </mxCell>
        <mxCell id="yg1q319LfR8nWrjF2FaG-79" value="&lt;div&gt;Appointments&lt;/div&gt;" style="shape=table;startSize=30;container=1;collapsible=1;childLayout=tableLayout;fixedRows=1;rowLines=0;fontStyle=0;align=center;resizeLast=1;html=1;fillColor=#FFFFFF;" vertex="1" parent="1">
          <mxGeometry x="390" y="149" width="180" height="199.05405405405406" as="geometry" />
        </mxCell>
        <mxCell id="yg1q319LfR8nWrjF2FaG-80" value="" style="shape=tableRow;horizontal=0;startSize=0;swimlaneHead=0;swimlaneBody=0;fillColor=none;collapsible=0;dropTarget=0;points=[[0,0.5],[1,0.5]];portConstraint=eastwest;top=0;left=0;right=0;bottom=1;fontStyle=0" vertex="1" parent="yg1q319LfR8nWrjF2FaG-79">
          <mxGeometry y="30" width="180" height="28" as="geometry" />
        </mxCell>
        <mxCell id="yg1q319LfR8nWrjF2FaG-81" value="PK" style="shape=partialRectangle;connectable=0;fillColor=none;top=0;left=0;bottom=0;right=0;fontStyle=0;overflow=hidden;whiteSpace=wrap;html=1;" vertex="1" parent="yg1q319LfR8nWrjF2FaG-80">
          <mxGeometry width="30" height="28" as="geometry">
            <mxRectangle width="30" height="28" as="alternateBounds" />
          </mxGeometry>
        </mxCell>
        <mxCell id="yg1q319LfR8nWrjF2FaG-82" value="AppointmentID" style="shape=partialRectangle;connectable=0;fillColor=none;top=0;left=0;bottom=0;right=0;align=left;spacingLeft=6;fontStyle=0;overflow=hidden;whiteSpace=wrap;html=1;" vertex="1" parent="yg1q319LfR8nWrjF2FaG-80">
          <mxGeometry x="30" width="150" height="28" as="geometry">
            <mxRectangle width="150" height="28" as="alternateBounds" />
          </mxGeometry>
        </mxCell>
        <mxCell id="yg1q319LfR8nWrjF2FaG-83" value="" style="shape=tableRow;horizontal=0;startSize=0;swimlaneHead=0;swimlaneBody=0;fillColor=none;collapsible=0;dropTarget=0;points=[[0,0.5],[1,0.5]];portConstraint=eastwest;top=0;left=0;right=0;bottom=0;fontStyle=0" vertex="1" parent="yg1q319LfR8nWrjF2FaG-79">
          <mxGeometry y="58" width="180" height="31" as="geometry" />
        </mxCell>
        <mxCell id="yg1q319LfR8nWrjF2FaG-84" value="&lt;span&gt;FK&lt;/span&gt;" style="shape=partialRectangle;connectable=0;fillColor=none;top=0;left=0;bottom=0;right=0;editable=1;overflow=hidden;whiteSpace=wrap;html=1;fontStyle=0" vertex="1" parent="yg1q319LfR8nWrjF2FaG-83">
          <mxGeometry width="30" height="31" as="geometry">
            <mxRectangle width="30" height="31" as="alternateBounds" />
          </mxGeometry>
        </mxCell>
        <mxCell id="yg1q319LfR8nWrjF2FaG-85" value="&lt;span&gt;PatientID&lt;/span&gt;" style="shape=partialRectangle;connectable=0;fillColor=none;top=0;left=0;bottom=0;right=0;align=left;spacingLeft=6;overflow=hidden;whiteSpace=wrap;html=1;fontStyle=0" vertex="1" parent="yg1q319LfR8nWrjF2FaG-83">
          <mxGeometry x="30" width="150" height="31" as="geometry">
            <mxRectangle width="150" height="31" as="alternateBounds" />
          </mxGeometry>
        </mxCell>
        <mxCell id="yg1q319LfR8nWrjF2FaG-86" value="" style="shape=tableRow;horizontal=0;startSize=0;swimlaneHead=0;swimlaneBody=0;fillColor=none;collapsible=0;dropTarget=0;points=[[0,0.5],[1,0.5]];portConstraint=eastwest;top=0;left=0;right=0;bottom=0;fontStyle=0" vertex="1" parent="yg1q319LfR8nWrjF2FaG-79">
          <mxGeometry y="89" width="180" height="20" as="geometry" />
        </mxCell>
        <mxCell id="yg1q319LfR8nWrjF2FaG-87" value="FK" style="shape=partialRectangle;connectable=0;fillColor=none;top=0;left=0;bottom=0;right=0;editable=1;overflow=hidden;whiteSpace=wrap;html=1;fontStyle=0" vertex="1" parent="yg1q319LfR8nWrjF2FaG-86">
          <mxGeometry width="30" height="20" as="geometry">
            <mxRectangle width="30" height="20" as="alternateBounds" />
          </mxGeometry>
        </mxCell>
        <mxCell id="yg1q319LfR8nWrjF2FaG-88" value="DoctorID" style="shape=partialRectangle;connectable=0;fillColor=none;top=0;left=0;bottom=0;right=0;align=left;spacingLeft=6;overflow=hidden;whiteSpace=wrap;html=1;fontStyle=0" vertex="1" parent="yg1q319LfR8nWrjF2FaG-86">
          <mxGeometry x="30" width="150" height="20" as="geometry">
            <mxRectangle width="150" height="20" as="alternateBounds" />
          </mxGeometry>
        </mxCell>
        <mxCell id="yg1q319LfR8nWrjF2FaG-89" value="" style="shape=tableRow;horizontal=0;startSize=0;swimlaneHead=0;swimlaneBody=0;fillColor=none;collapsible=0;dropTarget=0;points=[[0,0.5],[1,0.5]];portConstraint=eastwest;top=0;left=0;right=0;bottom=0;fontStyle=0" vertex="1" parent="yg1q319LfR8nWrjF2FaG-79">
          <mxGeometry y="109" width="180" height="30" as="geometry" />
        </mxCell>
        <mxCell id="yg1q319LfR8nWrjF2FaG-90" value="" style="shape=partialRectangle;connectable=0;fillColor=none;top=0;left=0;bottom=0;right=0;editable=1;overflow=hidden;whiteSpace=wrap;html=1;fontStyle=0" vertex="1" parent="yg1q319LfR8nWrjF2FaG-89">
          <mxGeometry width="30" height="30" as="geometry">
            <mxRectangle width="30" height="30" as="alternateBounds" />
          </mxGeometry>
        </mxCell>
        <mxCell id="yg1q319LfR8nWrjF2FaG-91" value="AppointmentDateTime" style="shape=partialRectangle;connectable=0;fillColor=none;top=0;left=0;bottom=0;right=0;align=left;spacingLeft=6;overflow=hidden;whiteSpace=wrap;html=1;fontStyle=0" vertex="1" parent="yg1q319LfR8nWrjF2FaG-89">
          <mxGeometry x="30" width="150" height="30" as="geometry">
            <mxRectangle width="150" height="30" as="alternateBounds" />
          </mxGeometry>
        </mxCell>
        <mxCell id="yg1q319LfR8nWrjF2FaG-92" style="shape=tableRow;horizontal=0;startSize=0;swimlaneHead=0;swimlaneBody=0;fillColor=none;collapsible=0;dropTarget=0;points=[[0,0.5],[1,0.5]];portConstraint=eastwest;top=0;left=0;right=0;bottom=0;fontStyle=0" vertex="1" parent="yg1q319LfR8nWrjF2FaG-79">
          <mxGeometry y="139" width="180" height="30" as="geometry" />
        </mxCell>
        <mxCell id="yg1q319LfR8nWrjF2FaG-93" style="shape=partialRectangle;connectable=0;fillColor=none;top=0;left=0;bottom=0;right=0;editable=1;overflow=hidden;whiteSpace=wrap;html=1;fontStyle=0" vertex="1" parent="yg1q319LfR8nWrjF2FaG-92">
          <mxGeometry width="30" height="30" as="geometry">
            <mxRectangle width="30" height="30" as="alternateBounds" />
          </mxGeometry>
        </mxCell>
        <mxCell id="yg1q319LfR8nWrjF2FaG-94" value="&lt;div&gt;ReasonForAppointment&lt;/div&gt;" style="shape=partialRectangle;connectable=0;fillColor=none;top=0;left=0;bottom=0;right=0;align=left;spacingLeft=6;overflow=hidden;whiteSpace=wrap;html=1;fontStyle=0" vertex="1" parent="yg1q319LfR8nWrjF2FaG-92">
          <mxGeometry x="30" width="150" height="30" as="geometry">
            <mxRectangle width="150" height="30" as="alternateBounds" />
          </mxGeometry>
        </mxCell>
        <mxCell id="yg1q319LfR8nWrjF2FaG-95" style="shape=tableRow;horizontal=0;startSize=0;swimlaneHead=0;swimlaneBody=0;fillColor=none;collapsible=0;dropTarget=0;points=[[0,0.5],[1,0.5]];portConstraint=eastwest;top=0;left=0;right=0;bottom=0;fontStyle=0" vertex="1" parent="yg1q319LfR8nWrjF2FaG-79">
          <mxGeometry y="169" width="180" height="30" as="geometry" />
        </mxCell>
        <mxCell id="yg1q319LfR8nWrjF2FaG-96" style="shape=partialRectangle;connectable=0;fillColor=none;top=0;left=0;bottom=0;right=0;editable=1;overflow=hidden;whiteSpace=wrap;html=1;fontStyle=0" vertex="1" parent="yg1q319LfR8nWrjF2FaG-95">
          <mxGeometry width="30" height="30" as="geometry">
            <mxRectangle width="30" height="30" as="alternateBounds" />
          </mxGeometry>
        </mxCell>
        <mxCell id="yg1q319LfR8nWrjF2FaG-97" value="Status" style="shape=partialRectangle;connectable=0;fillColor=none;top=0;left=0;bottom=0;right=0;align=left;spacingLeft=6;overflow=hidden;whiteSpace=wrap;html=1;fontStyle=0" vertex="1" parent="yg1q319LfR8nWrjF2FaG-95">
          <mxGeometry x="30" width="150" height="30" as="geometry">
            <mxRectangle width="150" height="30" as="alternateBounds" />
          </mxGeometry>
        </mxCell>
        <mxCell id="yg1q319LfR8nWrjF2FaG-98" style="edgeStyle=orthogonalEdgeStyle;rounded=0;orthogonalLoop=1;jettySize=auto;html=1;entryX=0;entryY=0.5;entryDx=0;entryDy=0;startArrow=ERoneToMany;startFill=0;endArrow=ERmandOne;endFill=0;fontStyle=0" edge="1" parent="1" source="yg1q319LfR8nWrjF2FaG-83" target="yg1q319LfR8nWrjF2FaG-2">
          <mxGeometry relative="1" as="geometry" />
        </mxCell>
        <mxCell id="yg1q319LfR8nWrjF2FaG-99" value="&lt;div&gt;ServicesPerformed&lt;/div&gt;" style="shape=table;startSize=30;container=1;collapsible=1;childLayout=tableLayout;fixedRows=1;rowLines=0;fontStyle=0;align=center;resizeLast=1;html=1;fillColor=#FFFFFF;" vertex="1" parent="1">
          <mxGeometry x="40" y="308" width="194.67307692307688" height="120" as="geometry" />
        </mxCell>
        <mxCell id="yg1q319LfR8nWrjF2FaG-100" value="" style="shape=tableRow;horizontal=0;startSize=0;swimlaneHead=0;swimlaneBody=0;fillColor=none;collapsible=0;dropTarget=0;points=[[0,0.5],[1,0.5]];portConstraint=eastwest;top=0;left=0;right=0;bottom=1;fontStyle=0" vertex="1" parent="yg1q319LfR8nWrjF2FaG-99">
          <mxGeometry y="30" width="194.67307692307688" height="30" as="geometry" />
        </mxCell>
        <mxCell id="yg1q319LfR8nWrjF2FaG-101" value="PK" style="shape=partialRectangle;connectable=0;fillColor=none;top=0;left=0;bottom=0;right=0;fontStyle=0;overflow=hidden;whiteSpace=wrap;html=1;" vertex="1" parent="yg1q319LfR8nWrjF2FaG-100">
          <mxGeometry width="30" height="30" as="geometry">
            <mxRectangle width="30" height="30" as="alternateBounds" />
          </mxGeometry>
        </mxCell>
        <mxCell id="yg1q319LfR8nWrjF2FaG-102" value="ServicePerformedID" style="shape=partialRectangle;connectable=0;fillColor=none;top=0;left=0;bottom=0;right=0;align=left;spacingLeft=6;fontStyle=0;overflow=hidden;whiteSpace=wrap;html=1;" vertex="1" parent="yg1q319LfR8nWrjF2FaG-100">
          <mxGeometry x="30" width="164.67307692307688" height="30" as="geometry">
            <mxRectangle width="164.67307692307688" height="30" as="alternateBounds" />
          </mxGeometry>
        </mxCell>
        <mxCell id="yg1q319LfR8nWrjF2FaG-103" value="" style="shape=tableRow;horizontal=0;startSize=0;swimlaneHead=0;swimlaneBody=0;fillColor=none;collapsible=0;dropTarget=0;points=[[0,0.5],[1,0.5]];portConstraint=eastwest;top=0;left=0;right=0;bottom=0;fontStyle=0" vertex="1" parent="yg1q319LfR8nWrjF2FaG-99">
          <mxGeometry y="60" width="194.67307692307688" height="30" as="geometry" />
        </mxCell>
        <mxCell id="yg1q319LfR8nWrjF2FaG-104" value="FK" style="shape=partialRectangle;connectable=0;fillColor=none;top=0;left=0;bottom=0;right=0;editable=1;overflow=hidden;whiteSpace=wrap;html=1;fontStyle=0" vertex="1" parent="yg1q319LfR8nWrjF2FaG-103">
          <mxGeometry width="30" height="30" as="geometry">
            <mxRectangle width="30" height="30" as="alternateBounds" />
          </mxGeometry>
        </mxCell>
        <mxCell id="yg1q319LfR8nWrjF2FaG-105" value="&lt;span&gt;AppointmentID&lt;/span&gt;" style="shape=partialRectangle;connectable=0;fillColor=none;top=0;left=0;bottom=0;right=0;align=left;spacingLeft=6;overflow=hidden;whiteSpace=wrap;html=1;fontStyle=0" vertex="1" parent="yg1q319LfR8nWrjF2FaG-103">
          <mxGeometry x="30" width="164.67307692307688" height="30" as="geometry">
            <mxRectangle width="164.67307692307688" height="30" as="alternateBounds" />
          </mxGeometry>
        </mxCell>
        <mxCell id="yg1q319LfR8nWrjF2FaG-106" value="" style="shape=tableRow;horizontal=0;startSize=0;swimlaneHead=0;swimlaneBody=0;fillColor=none;collapsible=0;dropTarget=0;points=[[0,0.5],[1,0.5]];portConstraint=eastwest;top=0;left=0;right=0;bottom=0;fontStyle=0" vertex="1" parent="yg1q319LfR8nWrjF2FaG-99">
          <mxGeometry y="90" width="194.67307692307688" height="30" as="geometry" />
        </mxCell>
        <mxCell id="yg1q319LfR8nWrjF2FaG-107" value="FK" style="shape=partialRectangle;connectable=0;fillColor=none;top=0;left=0;bottom=0;right=0;editable=1;overflow=hidden;whiteSpace=wrap;html=1;fontStyle=0" vertex="1" parent="yg1q319LfR8nWrjF2FaG-106">
          <mxGeometry width="30" height="30" as="geometry">
            <mxRectangle width="30" height="30" as="alternateBounds" />
          </mxGeometry>
        </mxCell>
        <mxCell id="yg1q319LfR8nWrjF2FaG-108" value="&lt;span&gt;ServiceID&lt;/span&gt;" style="shape=partialRectangle;connectable=0;fillColor=none;top=0;left=0;bottom=0;right=0;align=left;spacingLeft=6;overflow=hidden;whiteSpace=wrap;html=1;fontStyle=0" vertex="1" parent="yg1q319LfR8nWrjF2FaG-106">
          <mxGeometry x="30" width="164.67307692307688" height="30" as="geometry">
            <mxRectangle width="164.67307692307688" height="30" as="alternateBounds" />
          </mxGeometry>
        </mxCell>
        <mxCell id="yg1q319LfR8nWrjF2FaG-109" value="&lt;div&gt;Bills&lt;/div&gt;" style="shape=table;startSize=30;container=1;collapsible=1;childLayout=tableLayout;fixedRows=1;rowLines=0;fontStyle=0;align=center;resizeLast=1;html=1;fillColor=#FFFFFF;" vertex="1" parent="1">
          <mxGeometry x="366" y="421" width="180" height="148" as="geometry" />
        </mxCell>
        <mxCell id="yg1q319LfR8nWrjF2FaG-110" value="" style="shape=tableRow;horizontal=0;startSize=0;swimlaneHead=0;swimlaneBody=0;fillColor=none;collapsible=0;dropTarget=0;points=[[0,0.5],[1,0.5]];portConstraint=eastwest;top=0;left=0;right=0;bottom=1;fontStyle=0" vertex="1" parent="yg1q319LfR8nWrjF2FaG-109">
          <mxGeometry y="30" width="180" height="28" as="geometry" />
        </mxCell>
        <mxCell id="yg1q319LfR8nWrjF2FaG-111" value="PK" style="shape=partialRectangle;connectable=0;fillColor=none;top=0;left=0;bottom=0;right=0;fontStyle=0;overflow=hidden;whiteSpace=wrap;html=1;" vertex="1" parent="yg1q319LfR8nWrjF2FaG-110">
          <mxGeometry width="30" height="28" as="geometry">
            <mxRectangle width="30" height="28" as="alternateBounds" />
          </mxGeometry>
        </mxCell>
        <mxCell id="yg1q319LfR8nWrjF2FaG-112" value="&lt;div&gt;BillID&lt;/div&gt;" style="shape=partialRectangle;connectable=0;fillColor=none;top=0;left=0;bottom=0;right=0;align=left;spacingLeft=6;fontStyle=0;overflow=hidden;whiteSpace=wrap;html=1;" vertex="1" parent="yg1q319LfR8nWrjF2FaG-110">
          <mxGeometry x="30" width="150" height="28" as="geometry">
            <mxRectangle width="150" height="28" as="alternateBounds" />
          </mxGeometry>
        </mxCell>
        <mxCell id="yg1q319LfR8nWrjF2FaG-113" style="shape=tableRow;horizontal=0;startSize=0;swimlaneHead=0;swimlaneBody=0;fillColor=none;collapsible=0;dropTarget=0;points=[[0,0.5],[1,0.5]];portConstraint=eastwest;top=0;left=0;right=0;bottom=0;swimlaneLine=1;fontStyle=0" vertex="1" parent="yg1q319LfR8nWrjF2FaG-109">
          <mxGeometry y="58" width="180" height="30" as="geometry" />
        </mxCell>
        <mxCell id="yg1q319LfR8nWrjF2FaG-114" value="FK" style="shape=partialRectangle;connectable=0;fillColor=none;top=0;left=0;bottom=0;right=0;editable=1;overflow=hidden;whiteSpace=wrap;html=1;fontStyle=0" vertex="1" parent="yg1q319LfR8nWrjF2FaG-113">
          <mxGeometry width="30" height="30" as="geometry">
            <mxRectangle width="30" height="30" as="alternateBounds" />
          </mxGeometry>
        </mxCell>
        <mxCell id="yg1q319LfR8nWrjF2FaG-115" value="AppointmentID" style="shape=partialRectangle;connectable=0;fillColor=none;top=0;left=0;bottom=0;right=0;align=left;spacingLeft=6;overflow=hidden;whiteSpace=wrap;html=1;fontStyle=0" vertex="1" parent="yg1q319LfR8nWrjF2FaG-113">
          <mxGeometry x="30" width="150" height="30" as="geometry">
            <mxRectangle width="150" height="30" as="alternateBounds" />
          </mxGeometry>
        </mxCell>
        <mxCell id="yg1q319LfR8nWrjF2FaG-116" value="" style="shape=tableRow;horizontal=0;startSize=0;swimlaneHead=0;swimlaneBody=0;fillColor=none;collapsible=0;dropTarget=0;points=[[0,0.5],[1,0.5]];portConstraint=eastwest;top=0;left=0;right=0;bottom=0;fontStyle=0" vertex="1" parent="yg1q319LfR8nWrjF2FaG-109">
          <mxGeometry y="88" width="180" height="30" as="geometry" />
        </mxCell>
        <mxCell id="yg1q319LfR8nWrjF2FaG-117" value="" style="shape=partialRectangle;connectable=0;fillColor=none;top=0;left=0;bottom=0;right=0;editable=1;overflow=hidden;whiteSpace=wrap;html=1;fontStyle=0" vertex="1" parent="yg1q319LfR8nWrjF2FaG-116">
          <mxGeometry width="30" height="30" as="geometry">
            <mxRectangle width="30" height="30" as="alternateBounds" />
          </mxGeometry>
        </mxCell>
        <mxCell id="yg1q319LfR8nWrjF2FaG-118" value="&lt;div&gt;BillingDate&lt;/div&gt;" style="shape=partialRectangle;connectable=0;fillColor=none;top=0;left=0;bottom=0;right=0;align=left;spacingLeft=6;overflow=hidden;whiteSpace=wrap;html=1;fontStyle=0" vertex="1" parent="yg1q319LfR8nWrjF2FaG-116">
          <mxGeometry x="30" width="150" height="30" as="geometry">
            <mxRectangle width="150" height="30" as="alternateBounds" />
          </mxGeometry>
        </mxCell>
        <mxCell id="yg1q319LfR8nWrjF2FaG-119" style="shape=tableRow;horizontal=0;startSize=0;swimlaneHead=0;swimlaneBody=0;fillColor=none;collapsible=0;dropTarget=0;points=[[0,0.5],[1,0.5]];portConstraint=eastwest;top=0;left=0;right=0;bottom=0;fontStyle=0" vertex="1" parent="yg1q319LfR8nWrjF2FaG-109">
          <mxGeometry y="118" width="180" height="30" as="geometry" />
        </mxCell>
        <mxCell id="yg1q319LfR8nWrjF2FaG-120" style="shape=partialRectangle;connectable=0;fillColor=none;top=0;left=0;bottom=0;right=0;editable=1;overflow=hidden;whiteSpace=wrap;html=1;fontStyle=0" vertex="1" parent="yg1q319LfR8nWrjF2FaG-119">
          <mxGeometry width="30" height="30" as="geometry">
            <mxRectangle width="30" height="30" as="alternateBounds" />
          </mxGeometry>
        </mxCell>
        <mxCell id="yg1q319LfR8nWrjF2FaG-121" value="TotalAmount" style="shape=partialRectangle;connectable=0;fillColor=none;top=0;left=0;bottom=0;right=0;align=left;spacingLeft=6;overflow=hidden;whiteSpace=wrap;html=1;fontStyle=0" vertex="1" parent="yg1q319LfR8nWrjF2FaG-119">
          <mxGeometry x="30" width="150" height="30" as="geometry">
            <mxRectangle width="150" height="30" as="alternateBounds" />
          </mxGeometry>
        </mxCell>
        <mxCell id="yg1q319LfR8nWrjF2FaG-125" value="Users" style="shape=table;startSize=30;container=1;collapsible=1;childLayout=tableLayout;fixedRows=1;rowLines=0;fontStyle=0;align=center;resizeLast=1;html=1;fillColor=#FFFFFF;" vertex="1" parent="1">
          <mxGeometry x="101" y="724" width="180" height="296.30952380952374" as="geometry" />
        </mxCell>
        <mxCell id="yg1q319LfR8nWrjF2FaG-126" value="" style="shape=tableRow;horizontal=0;startSize=0;swimlaneHead=0;swimlaneBody=0;fillColor=none;collapsible=0;dropTarget=0;points=[[0,0.5],[1,0.5]];portConstraint=eastwest;top=0;left=0;right=0;bottom=1;fontStyle=0" vertex="1" parent="yg1q319LfR8nWrjF2FaG-125">
          <mxGeometry y="30" width="180" height="28" as="geometry" />
        </mxCell>
        <mxCell id="yg1q319LfR8nWrjF2FaG-127" value="PK" style="shape=partialRectangle;connectable=0;fillColor=none;top=0;left=0;bottom=0;right=0;fontStyle=0;overflow=hidden;whiteSpace=wrap;html=1;" vertex="1" parent="yg1q319LfR8nWrjF2FaG-126">
          <mxGeometry width="30" height="28" as="geometry">
            <mxRectangle width="30" height="28" as="alternateBounds" />
          </mxGeometry>
        </mxCell>
        <mxCell id="yg1q319LfR8nWrjF2FaG-128" value="UserID" style="shape=partialRectangle;connectable=0;fillColor=none;top=0;left=0;bottom=0;right=0;align=left;spacingLeft=6;fontStyle=0;overflow=hidden;whiteSpace=wrap;html=1;" vertex="1" parent="yg1q319LfR8nWrjF2FaG-126">
          <mxGeometry x="30" width="150" height="28" as="geometry">
            <mxRectangle width="150" height="28" as="alternateBounds" />
          </mxGeometry>
        </mxCell>
        <mxCell id="yg1q319LfR8nWrjF2FaG-129" value="" style="shape=tableRow;horizontal=0;startSize=0;swimlaneHead=0;swimlaneBody=0;fillColor=none;collapsible=0;dropTarget=0;points=[[0,0.5],[1,0.5]];portConstraint=eastwest;top=0;left=0;right=0;bottom=0;fontStyle=0" vertex="1" parent="yg1q319LfR8nWrjF2FaG-125">
          <mxGeometry y="58" width="180" height="30" as="geometry" />
        </mxCell>
        <mxCell id="yg1q319LfR8nWrjF2FaG-130" value="" style="shape=partialRectangle;connectable=0;fillColor=none;top=0;left=0;bottom=0;right=0;editable=1;overflow=hidden;whiteSpace=wrap;html=1;fontStyle=0" vertex="1" parent="yg1q319LfR8nWrjF2FaG-129">
          <mxGeometry width="30" height="30" as="geometry">
            <mxRectangle width="30" height="30" as="alternateBounds" />
          </mxGeometry>
        </mxCell>
        <mxCell id="yg1q319LfR8nWrjF2FaG-131" value="username" style="shape=partialRectangle;connectable=0;fillColor=none;top=0;left=0;bottom=0;right=0;align=left;spacingLeft=6;overflow=hidden;whiteSpace=wrap;html=1;fontStyle=0" vertex="1" parent="yg1q319LfR8nWrjF2FaG-129">
          <mxGeometry x="30" width="150" height="30" as="geometry">
            <mxRectangle width="150" height="30" as="alternateBounds" />
          </mxGeometry>
        </mxCell>
        <mxCell id="yg1q319LfR8nWrjF2FaG-132" style="shape=tableRow;horizontal=0;startSize=0;swimlaneHead=0;swimlaneBody=0;fillColor=none;collapsible=0;dropTarget=0;points=[[0,0.5],[1,0.5]];portConstraint=eastwest;top=0;left=0;right=0;bottom=0;fontStyle=0" vertex="1" parent="yg1q319LfR8nWrjF2FaG-125">
          <mxGeometry y="88" width="180" height="30" as="geometry" />
        </mxCell>
        <mxCell id="yg1q319LfR8nWrjF2FaG-133" style="shape=partialRectangle;connectable=0;fillColor=none;top=0;left=0;bottom=0;right=0;editable=1;overflow=hidden;whiteSpace=wrap;html=1;fontStyle=0" vertex="1" parent="yg1q319LfR8nWrjF2FaG-132">
          <mxGeometry width="30" height="30" as="geometry">
            <mxRectangle width="30" height="30" as="alternateBounds" />
          </mxGeometry>
        </mxCell>
        <mxCell id="yg1q319LfR8nWrjF2FaG-134" value="&lt;div&gt;password&lt;/div&gt;" style="shape=partialRectangle;connectable=0;fillColor=none;top=0;left=0;bottom=0;right=0;align=left;spacingLeft=6;overflow=hidden;whiteSpace=wrap;html=1;fontStyle=0" vertex="1" parent="yg1q319LfR8nWrjF2FaG-132">
          <mxGeometry x="30" width="150" height="30" as="geometry">
            <mxRectangle width="150" height="30" as="alternateBounds" />
          </mxGeometry>
        </mxCell>
        <mxCell id="yg1q319LfR8nWrjF2FaG-135" style="shape=tableRow;horizontal=0;startSize=0;swimlaneHead=0;swimlaneBody=0;fillColor=none;collapsible=0;dropTarget=0;points=[[0,0.5],[1,0.5]];portConstraint=eastwest;top=0;left=0;right=0;bottom=0;fontStyle=0" vertex="1" parent="yg1q319LfR8nWrjF2FaG-125">
          <mxGeometry y="118" width="180" height="30" as="geometry" />
        </mxCell>
        <mxCell id="yg1q319LfR8nWrjF2FaG-136" style="shape=partialRectangle;connectable=0;fillColor=none;top=0;left=0;bottom=0;right=0;editable=1;overflow=hidden;whiteSpace=wrap;html=1;fontStyle=0" vertex="1" parent="yg1q319LfR8nWrjF2FaG-135">
          <mxGeometry width="30" height="30" as="geometry">
            <mxRectangle width="30" height="30" as="alternateBounds" />
          </mxGeometry>
        </mxCell>
        <mxCell id="yg1q319LfR8nWrjF2FaG-137" value="accType" style="shape=partialRectangle;connectable=0;fillColor=none;top=0;left=0;bottom=0;right=0;align=left;spacingLeft=6;overflow=hidden;whiteSpace=wrap;html=1;fontStyle=0" vertex="1" parent="yg1q319LfR8nWrjF2FaG-135">
          <mxGeometry x="30" width="150" height="30" as="geometry">
            <mxRectangle width="150" height="30" as="alternateBounds" />
          </mxGeometry>
        </mxCell>
        <mxCell id="yg1q319LfR8nWrjF2FaG-138" style="shape=tableRow;horizontal=0;startSize=0;swimlaneHead=0;swimlaneBody=0;fillColor=none;collapsible=0;dropTarget=0;points=[[0,0.5],[1,0.5]];portConstraint=eastwest;top=0;left=0;right=0;bottom=0;fontStyle=0" vertex="1" parent="yg1q319LfR8nWrjF2FaG-125">
          <mxGeometry y="148" width="180" height="30" as="geometry" />
        </mxCell>
        <mxCell id="yg1q319LfR8nWrjF2FaG-139" style="shape=partialRectangle;connectable=0;fillColor=none;top=0;left=0;bottom=0;right=0;editable=1;overflow=hidden;whiteSpace=wrap;html=1;fontStyle=0" vertex="1" parent="yg1q319LfR8nWrjF2FaG-138">
          <mxGeometry width="30" height="30" as="geometry">
            <mxRectangle width="30" height="30" as="alternateBounds" />
          </mxGeometry>
        </mxCell>
        <mxCell id="yg1q319LfR8nWrjF2FaG-140" value="&lt;div&gt;EmailAddress&lt;/div&gt;" style="shape=partialRectangle;connectable=0;fillColor=none;top=0;left=0;bottom=0;right=0;align=left;spacingLeft=6;overflow=hidden;whiteSpace=wrap;html=1;fontStyle=0" vertex="1" parent="yg1q319LfR8nWrjF2FaG-138">
          <mxGeometry x="30" width="150" height="30" as="geometry">
            <mxRectangle width="150" height="30" as="alternateBounds" />
          </mxGeometry>
        </mxCell>
        <mxCell id="yg1q319LfR8nWrjF2FaG-141" style="shape=tableRow;horizontal=0;startSize=0;swimlaneHead=0;swimlaneBody=0;fillColor=none;collapsible=0;dropTarget=0;points=[[0,0.5],[1,0.5]];portConstraint=eastwest;top=0;left=0;right=0;bottom=0;fontStyle=0" vertex="1" parent="yg1q319LfR8nWrjF2FaG-125">
          <mxGeometry y="178" width="180" height="28" as="geometry" />
        </mxCell>
        <mxCell id="yg1q319LfR8nWrjF2FaG-142" style="shape=partialRectangle;connectable=0;fillColor=none;top=0;left=0;bottom=0;right=0;editable=1;overflow=hidden;whiteSpace=wrap;html=1;fontStyle=0" vertex="1" parent="yg1q319LfR8nWrjF2FaG-141">
          <mxGeometry width="30" height="28" as="geometry">
            <mxRectangle width="30" height="28" as="alternateBounds" />
          </mxGeometry>
        </mxCell>
        <mxCell id="yg1q319LfR8nWrjF2FaG-143" value="ContactNumber" style="shape=partialRectangle;connectable=0;fillColor=none;top=0;left=0;bottom=0;right=0;align=left;spacingLeft=6;overflow=hidden;whiteSpace=wrap;html=1;fontStyle=0" vertex="1" parent="yg1q319LfR8nWrjF2FaG-141">
          <mxGeometry x="30" width="150" height="28" as="geometry">
            <mxRectangle width="150" height="28" as="alternateBounds" />
          </mxGeometry>
        </mxCell>
        <mxCell id="yg1q319LfR8nWrjF2FaG-144" style="shape=tableRow;horizontal=0;startSize=0;swimlaneHead=0;swimlaneBody=0;fillColor=none;collapsible=0;dropTarget=0;points=[[0,0.5],[1,0.5]];portConstraint=eastwest;top=0;left=0;right=0;bottom=0;fontStyle=0" vertex="1" parent="yg1q319LfR8nWrjF2FaG-125">
          <mxGeometry y="206" width="180" height="30" as="geometry" />
        </mxCell>
        <mxCell id="yg1q319LfR8nWrjF2FaG-145" style="shape=partialRectangle;connectable=0;fillColor=none;top=0;left=0;bottom=0;right=0;editable=1;overflow=hidden;whiteSpace=wrap;html=1;fontStyle=0" vertex="1" parent="yg1q319LfR8nWrjF2FaG-144">
          <mxGeometry width="30" height="30" as="geometry">
            <mxRectangle width="30" height="30" as="alternateBounds" />
          </mxGeometry>
        </mxCell>
        <mxCell id="yg1q319LfR8nWrjF2FaG-146" value="&lt;div&gt;AltContactNumber&lt;/div&gt;" style="shape=partialRectangle;connectable=0;fillColor=none;top=0;left=0;bottom=0;right=0;align=left;spacingLeft=6;overflow=hidden;whiteSpace=wrap;html=1;fontStyle=0" vertex="1" parent="yg1q319LfR8nWrjF2FaG-144">
          <mxGeometry x="30" width="150" height="30" as="geometry">
            <mxRectangle width="150" height="30" as="alternateBounds" />
          </mxGeometry>
        </mxCell>
        <mxCell id="yg1q319LfR8nWrjF2FaG-147" style="shape=tableRow;horizontal=0;startSize=0;swimlaneHead=0;swimlaneBody=0;fillColor=none;collapsible=0;dropTarget=0;points=[[0,0.5],[1,0.5]];portConstraint=eastwest;top=0;left=0;right=0;bottom=0;fontStyle=0" vertex="1" parent="yg1q319LfR8nWrjF2FaG-125">
          <mxGeometry y="236" width="180" height="30" as="geometry" />
        </mxCell>
        <mxCell id="yg1q319LfR8nWrjF2FaG-148" style="shape=partialRectangle;connectable=0;fillColor=none;top=0;left=0;bottom=0;right=0;editable=1;overflow=hidden;whiteSpace=wrap;html=1;fontStyle=0" vertex="1" parent="yg1q319LfR8nWrjF2FaG-147">
          <mxGeometry width="30" height="30" as="geometry">
            <mxRectangle width="30" height="30" as="alternateBounds" />
          </mxGeometry>
        </mxCell>
        <mxCell id="yg1q319LfR8nWrjF2FaG-149" value="Address" style="shape=partialRectangle;connectable=0;fillColor=none;top=0;left=0;bottom=0;right=0;align=left;spacingLeft=6;overflow=hidden;whiteSpace=wrap;html=1;fontStyle=0" vertex="1" parent="yg1q319LfR8nWrjF2FaG-147">
          <mxGeometry x="30" width="150" height="30" as="geometry">
            <mxRectangle width="150" height="30" as="alternateBounds" />
          </mxGeometry>
        </mxCell>
        <mxCell id="yg1q319LfR8nWrjF2FaG-150" style="shape=tableRow;horizontal=0;startSize=0;swimlaneHead=0;swimlaneBody=0;fillColor=none;collapsible=0;dropTarget=0;points=[[0,0.5],[1,0.5]];portConstraint=eastwest;top=0;left=0;right=0;bottom=0;fontStyle=0" vertex="1" parent="yg1q319LfR8nWrjF2FaG-125">
          <mxGeometry y="266" width="180" height="30" as="geometry" />
        </mxCell>
        <mxCell id="yg1q319LfR8nWrjF2FaG-151" style="shape=partialRectangle;connectable=0;fillColor=none;top=0;left=0;bottom=0;right=0;editable=1;overflow=hidden;whiteSpace=wrap;html=1;fontStyle=0" vertex="1" parent="yg1q319LfR8nWrjF2FaG-150">
          <mxGeometry width="30" height="30" as="geometry">
            <mxRectangle width="30" height="30" as="alternateBounds" />
          </mxGeometry>
        </mxCell>
        <mxCell id="yg1q319LfR8nWrjF2FaG-152" value="status" style="shape=partialRectangle;connectable=0;fillColor=none;top=0;left=0;bottom=0;right=0;align=left;spacingLeft=6;overflow=hidden;whiteSpace=wrap;html=1;fontStyle=0" vertex="1" parent="yg1q319LfR8nWrjF2FaG-150">
          <mxGeometry x="30" width="150" height="30" as="geometry">
            <mxRectangle width="150" height="30" as="alternateBounds" />
          </mxGeometry>
        </mxCell>
        <mxCell id="yg1q319LfR8nWrjF2FaG-153" style="edgeStyle=orthogonalEdgeStyle;rounded=0;orthogonalLoop=1;jettySize=auto;html=1;endArrow=ERoneToMany;startFill=0;startArrow=ERoneToMany;endFill=0;" edge="1" parent="1">
          <mxGeometry relative="1" as="geometry">
            <Array as="points">
              <mxPoint x="23" y="502" />
              <mxPoint x="23" y="413" />
            </Array>
            <mxPoint x="46.340000000000146" y="502.030303030303" as="sourcePoint" />
            <mxPoint x="39" y="413.0000000000001" as="targetPoint" />
          </mxGeometry>
        </mxCell>
        <mxCell id="yg1q319LfR8nWrjF2FaG-154" style="edgeStyle=orthogonalEdgeStyle;rounded=0;orthogonalLoop=1;jettySize=auto;html=1;endArrow=ERoneToMany;startFill=0;startArrow=ERoneToMany;endFill=0;" edge="1" parent="1" source="yg1q319LfR8nWrjF2FaG-80" target="yg1q319LfR8nWrjF2FaG-103">
          <mxGeometry relative="1" as="geometry">
            <Array as="points">
              <mxPoint x="332" y="188" />
              <mxPoint x="332" y="379" />
            </Array>
          </mxGeometry>
        </mxCell>
        <mxCell id="yg1q319LfR8nWrjF2FaG-155" value="&lt;div&gt;Receptionist&lt;/div&gt;" style="shape=table;startSize=30;container=1;collapsible=1;childLayout=tableLayout;fixedRows=1;rowLines=0;fontStyle=0;align=center;resizeLast=1;html=1;fillColor=#FFFFFF;" vertex="1" parent="1">
          <mxGeometry x="340" y="819" width="180" height="180.09523809523807" as="geometry" />
        </mxCell>
        <mxCell id="yg1q319LfR8nWrjF2FaG-156" value="" style="shape=tableRow;horizontal=0;startSize=0;swimlaneHead=0;swimlaneBody=0;fillColor=none;collapsible=0;dropTarget=0;points=[[0,0.5],[1,0.5]];portConstraint=eastwest;top=0;left=0;right=0;bottom=1;fontStyle=0" vertex="1" parent="yg1q319LfR8nWrjF2FaG-155">
          <mxGeometry y="30" width="180" height="30" as="geometry" />
        </mxCell>
        <mxCell id="yg1q319LfR8nWrjF2FaG-157" value="PK" style="shape=partialRectangle;connectable=0;fillColor=none;top=0;left=0;bottom=0;right=0;fontStyle=0;overflow=hidden;whiteSpace=wrap;html=1;" vertex="1" parent="yg1q319LfR8nWrjF2FaG-156">
          <mxGeometry width="30" height="30" as="geometry">
            <mxRectangle width="30" height="30" as="alternateBounds" />
          </mxGeometry>
        </mxCell>
        <mxCell id="yg1q319LfR8nWrjF2FaG-158" value="&lt;div&gt;ReceptionistID&lt;/div&gt;" style="shape=partialRectangle;connectable=0;fillColor=none;top=0;left=0;bottom=0;right=0;align=left;spacingLeft=6;fontStyle=0;overflow=hidden;whiteSpace=wrap;html=1;" vertex="1" parent="yg1q319LfR8nWrjF2FaG-156">
          <mxGeometry x="30" width="150" height="30" as="geometry">
            <mxRectangle width="150" height="30" as="alternateBounds" />
          </mxGeometry>
        </mxCell>
        <mxCell id="yg1q319LfR8nWrjF2FaG-159" style="shape=tableRow;horizontal=0;startSize=0;swimlaneHead=0;swimlaneBody=0;fillColor=none;collapsible=0;dropTarget=0;points=[[0,0.5],[1,0.5]];portConstraint=eastwest;top=0;left=0;right=0;bottom=1;fontStyle=0" vertex="1" parent="yg1q319LfR8nWrjF2FaG-155">
          <mxGeometry y="60" width="180" height="30" as="geometry" />
        </mxCell>
        <mxCell id="yg1q319LfR8nWrjF2FaG-160" value="FK" style="shape=partialRectangle;connectable=0;fillColor=none;top=0;left=0;bottom=0;right=0;fontStyle=0;overflow=hidden;whiteSpace=wrap;html=1;" vertex="1" parent="yg1q319LfR8nWrjF2FaG-159">
          <mxGeometry width="30" height="30" as="geometry">
            <mxRectangle width="30" height="30" as="alternateBounds" />
          </mxGeometry>
        </mxCell>
        <mxCell id="yg1q319LfR8nWrjF2FaG-161" value="&lt;div&gt;UserID&lt;/div&gt;" style="shape=partialRectangle;connectable=0;fillColor=none;top=0;left=0;bottom=0;right=0;align=left;spacingLeft=6;fontStyle=0;overflow=hidden;whiteSpace=wrap;html=1;" vertex="1" parent="yg1q319LfR8nWrjF2FaG-159">
          <mxGeometry x="30" width="150" height="30" as="geometry">
            <mxRectangle width="150" height="30" as="alternateBounds" />
          </mxGeometry>
        </mxCell>
        <mxCell id="yg1q319LfR8nWrjF2FaG-162" value="" style="shape=tableRow;horizontal=0;startSize=0;swimlaneHead=0;swimlaneBody=0;fillColor=none;collapsible=0;dropTarget=0;points=[[0,0.5],[1,0.5]];portConstraint=eastwest;top=0;left=0;right=0;bottom=0;fontStyle=0" vertex="1" parent="yg1q319LfR8nWrjF2FaG-155">
          <mxGeometry y="90" width="180" height="30" as="geometry" />
        </mxCell>
        <mxCell id="yg1q319LfR8nWrjF2FaG-163" value="" style="shape=partialRectangle;connectable=0;fillColor=none;top=0;left=0;bottom=0;right=0;editable=1;overflow=hidden;whiteSpace=wrap;html=1;fontStyle=0" vertex="1" parent="yg1q319LfR8nWrjF2FaG-162">
          <mxGeometry width="30" height="30" as="geometry">
            <mxRectangle width="30" height="30" as="alternateBounds" />
          </mxGeometry>
        </mxCell>
        <mxCell id="yg1q319LfR8nWrjF2FaG-164" value="FirstName" style="shape=partialRectangle;connectable=0;fillColor=none;top=0;left=0;bottom=0;right=0;align=left;spacingLeft=6;overflow=hidden;whiteSpace=wrap;html=1;fontStyle=0" vertex="1" parent="yg1q319LfR8nWrjF2FaG-162">
          <mxGeometry x="30" width="150" height="30" as="geometry">
            <mxRectangle width="150" height="30" as="alternateBounds" />
          </mxGeometry>
        </mxCell>
        <mxCell id="yg1q319LfR8nWrjF2FaG-165" value="" style="shape=tableRow;horizontal=0;startSize=0;swimlaneHead=0;swimlaneBody=0;fillColor=none;collapsible=0;dropTarget=0;points=[[0,0.5],[1,0.5]];portConstraint=eastwest;top=0;left=0;right=0;bottom=0;fontStyle=0" vertex="1" parent="yg1q319LfR8nWrjF2FaG-155">
          <mxGeometry y="120" width="180" height="30" as="geometry" />
        </mxCell>
        <mxCell id="yg1q319LfR8nWrjF2FaG-166" value="" style="shape=partialRectangle;connectable=0;fillColor=none;top=0;left=0;bottom=0;right=0;editable=1;overflow=hidden;whiteSpace=wrap;html=1;fontStyle=0" vertex="1" parent="yg1q319LfR8nWrjF2FaG-165">
          <mxGeometry width="30" height="30" as="geometry">
            <mxRectangle width="30" height="30" as="alternateBounds" />
          </mxGeometry>
        </mxCell>
        <mxCell id="yg1q319LfR8nWrjF2FaG-167" value="&lt;div&gt;MiddleName&lt;/div&gt;" style="shape=partialRectangle;connectable=0;fillColor=none;top=0;left=0;bottom=0;right=0;align=left;spacingLeft=6;overflow=hidden;whiteSpace=wrap;html=1;fontStyle=0" vertex="1" parent="yg1q319LfR8nWrjF2FaG-165">
          <mxGeometry x="30" width="150" height="30" as="geometry">
            <mxRectangle width="150" height="30" as="alternateBounds" />
          </mxGeometry>
        </mxCell>
        <mxCell id="yg1q319LfR8nWrjF2FaG-168" value="" style="shape=tableRow;horizontal=0;startSize=0;swimlaneHead=0;swimlaneBody=0;fillColor=none;collapsible=0;dropTarget=0;points=[[0,0.5],[1,0.5]];portConstraint=eastwest;top=0;left=0;right=0;bottom=0;fontStyle=0" vertex="1" parent="yg1q319LfR8nWrjF2FaG-155">
          <mxGeometry y="150" width="180" height="30" as="geometry" />
        </mxCell>
        <mxCell id="yg1q319LfR8nWrjF2FaG-169" value="" style="shape=partialRectangle;connectable=0;fillColor=none;top=0;left=0;bottom=0;right=0;editable=1;overflow=hidden;whiteSpace=wrap;html=1;fontStyle=0" vertex="1" parent="yg1q319LfR8nWrjF2FaG-168">
          <mxGeometry width="30" height="30" as="geometry">
            <mxRectangle width="30" height="30" as="alternateBounds" />
          </mxGeometry>
        </mxCell>
        <mxCell id="yg1q319LfR8nWrjF2FaG-170" value="LastName" style="shape=partialRectangle;connectable=0;fillColor=none;top=0;left=0;bottom=0;right=0;align=left;spacingLeft=6;overflow=hidden;whiteSpace=wrap;html=1;fontStyle=0" vertex="1" parent="yg1q319LfR8nWrjF2FaG-168">
          <mxGeometry x="30" width="150" height="30" as="geometry">
            <mxRectangle width="150" height="30" as="alternateBounds" />
          </mxGeometry>
        </mxCell>
        <mxCell id="yg1q319LfR8nWrjF2FaG-171" style="edgeStyle=orthogonalEdgeStyle;rounded=0;orthogonalLoop=1;jettySize=auto;html=1;endArrow=ERmandOne;startFill=0;endFill=0;startArrow=ERmandOne;" edge="1" parent="1" source="yg1q319LfR8nWrjF2FaG-113" target="yg1q319LfR8nWrjF2FaG-80">
          <mxGeometry relative="1" as="geometry">
            <Array as="points">
              <mxPoint x="303" y="494" />
              <mxPoint x="303" y="419" />
              <mxPoint x="351" y="419" />
              <mxPoint x="351" y="197" />
            </Array>
          </mxGeometry>
        </mxCell>
        <mxCell id="yg1q319LfR8nWrjF2FaG-172" style="edgeStyle=orthogonalEdgeStyle;rounded=0;orthogonalLoop=1;jettySize=auto;html=1;endArrow=ERmandOne;startFill=0;endFill=0;startArrow=ERoneToMany;" edge="1" parent="1" source="yg1q319LfR8nWrjF2FaG-159" target="yg1q319LfR8nWrjF2FaG-126">
          <mxGeometry relative="1" as="geometry">
            <Array as="points">
              <mxPoint x="540" y="902" />
              <mxPoint x="540" y="777" />
            </Array>
            <mxPoint x="282" y="779" as="targetPoint" />
          </mxGeometry>
        </mxCell>
        <mxCell id="yg1q319LfR8nWrjF2FaG-173" style="edgeStyle=orthogonalEdgeStyle;rounded=0;orthogonalLoop=1;jettySize=auto;html=1;endArrow=ERmandOne;startFill=0;startArrow=ERoneToMany;endFill=0;" edge="1" parent="1" source="yg1q319LfR8nWrjF2FaG-39" target="yg1q319LfR8nWrjF2FaG-126">
          <mxGeometry relative="1" as="geometry">
            <Array as="points">
              <mxPoint x="549" y="645" />
              <mxPoint x="549" y="759" />
            </Array>
          </mxGeometry>
        </mxCell>
        <mxCell id="yg1q319LfR8nWrjF2FaG-174" value="&lt;div&gt;ServiceTypes&lt;/div&gt;" style="shape=table;startSize=30;container=1;collapsible=1;childLayout=tableLayout;fixedRows=1;rowLines=0;fontStyle=0;align=center;resizeLast=1;html=1;fillColor=#FFFFFF;" vertex="1" parent="1">
          <mxGeometry x="312" y="598" width="180" height="88" as="geometry" />
        </mxCell>
        <mxCell id="yg1q319LfR8nWrjF2FaG-175" value="" style="shape=tableRow;horizontal=0;startSize=0;swimlaneHead=0;swimlaneBody=0;fillColor=none;collapsible=0;dropTarget=0;points=[[0,0.5],[1,0.5]];portConstraint=eastwest;top=0;left=0;right=0;bottom=1;fontStyle=0" vertex="1" parent="yg1q319LfR8nWrjF2FaG-174">
          <mxGeometry y="30" width="180" height="28" as="geometry" />
        </mxCell>
        <mxCell id="yg1q319LfR8nWrjF2FaG-176" value="PK" style="shape=partialRectangle;connectable=0;fillColor=none;top=0;left=0;bottom=0;right=0;fontStyle=0;overflow=hidden;whiteSpace=wrap;html=1;" vertex="1" parent="yg1q319LfR8nWrjF2FaG-175">
          <mxGeometry width="28.75" height="28" as="geometry">
            <mxRectangle width="28.75" height="28" as="alternateBounds" />
          </mxGeometry>
        </mxCell>
        <mxCell id="yg1q319LfR8nWrjF2FaG-177" value="&lt;div&gt;ServiceTypeID&lt;/div&gt;" style="shape=partialRectangle;connectable=0;fillColor=none;top=0;left=0;bottom=0;right=0;align=left;spacingLeft=6;fontStyle=0;overflow=hidden;whiteSpace=wrap;html=1;" vertex="1" parent="yg1q319LfR8nWrjF2FaG-175">
          <mxGeometry x="28.75" width="151.25" height="28" as="geometry">
            <mxRectangle width="151.25" height="28" as="alternateBounds" />
          </mxGeometry>
        </mxCell>
        <mxCell id="yg1q319LfR8nWrjF2FaG-178" value="" style="shape=tableRow;horizontal=0;startSize=0;swimlaneHead=0;swimlaneBody=0;fillColor=none;collapsible=0;dropTarget=0;points=[[0,0.5],[1,0.5]];portConstraint=eastwest;top=0;left=0;right=0;bottom=0;fontStyle=0" vertex="1" parent="yg1q319LfR8nWrjF2FaG-174">
          <mxGeometry y="58" width="180" height="30" as="geometry" />
        </mxCell>
        <mxCell id="yg1q319LfR8nWrjF2FaG-179" value="" style="shape=partialRectangle;connectable=0;fillColor=none;top=0;left=0;bottom=0;right=0;editable=1;overflow=hidden;whiteSpace=wrap;html=1;fontStyle=0" vertex="1" parent="yg1q319LfR8nWrjF2FaG-178">
          <mxGeometry width="28.75" height="30" as="geometry">
            <mxRectangle width="28.75" height="30" as="alternateBounds" />
          </mxGeometry>
        </mxCell>
        <mxCell id="yg1q319LfR8nWrjF2FaG-180" value="ServiceTypeName" style="shape=partialRectangle;connectable=0;fillColor=none;top=0;left=0;bottom=0;right=0;align=left;spacingLeft=6;overflow=hidden;whiteSpace=wrap;html=1;fontStyle=0" vertex="1" parent="yg1q319LfR8nWrjF2FaG-178">
          <mxGeometry x="28.75" width="151.25" height="30" as="geometry">
            <mxRectangle width="151.25" height="30" as="alternateBounds" />
          </mxGeometry>
        </mxCell>
        <mxCell id="yg1q319LfR8nWrjF2FaG-181" style="edgeStyle=orthogonalEdgeStyle;rounded=0;orthogonalLoop=1;jettySize=auto;html=1;startArrow=ERoneToMany;startFill=0;endArrow=ERmandOne;endFill=0;" edge="1" parent="1" source="yg1q319LfR8nWrjF2FaG-70" target="yg1q319LfR8nWrjF2FaG-175">
          <mxGeometry relative="1" as="geometry" />
        </mxCell>
        <mxCell id="yg1q319LfR8nWrjF2FaG-182" style="edgeStyle=orthogonalEdgeStyle;rounded=0;orthogonalLoop=1;jettySize=auto;html=1;endArrow=ERoneToMany;startFill=0;startArrow=ERmandOne;endFill=0;" edge="1" parent="1" source="yg1q319LfR8nWrjF2FaG-36" target="yg1q319LfR8nWrjF2FaG-86">
          <mxGeometry relative="1" as="geometry">
            <Array as="points">
              <mxPoint x="590" y="617" />
              <mxPoint x="590" y="253" />
            </Array>
            <mxPoint x="548" y="621" as="sourcePoint" />
          </mxGeometry>
        </mxCell>
      </root>
    </mxGraphModel>
  </diagram>
</mxfile>
